<?xml version="1.0" encoding="UTF-8"?>
<svg width="242px" height="41px" viewBox="0 0 242 41" version="1.1" xmlns="http://www.w3.org/2000/svg" xmlns:xlink="http://www.w3.org/1999/xlink">
    <title>Untitled 6</title>
    <g id="Page-1" stroke="none" stroke-width="1" fill="none" fill-rule="evenodd">
        <g id="Chanel" transform="translate(0.074671, 0.000000)" fill="#161413">
            <g id="g2414" transform="translate(0.658878, 0.822189)">
                <g id="g2438" transform="translate(0.291333, 0.269653)">
                    <g id="g4" transform="translate(0.037406, 0.229442)">
                        <path d="M34.4161537,27.4767919 C34.3869471,27.5338467 34.3300281,27.6479564 34.302044,27.7342178 C31.217687,33.5606029 25.1617242,37.5298532 18.2500747,37.5298532 C8.22503812,37.5298532 0,29.1324688 0,18.7649266 C0,8.45457514 8.22503812,0 18.2500747,0 C25.1909308,0 31.2747418,4.05551177 34.3300281,9.96815832 C34.4161537,10.082268 34.4440019,10.1393228 34.5303723,10.3104873 C34.55947,10.339694 28.7038783,14.5662344 28.6468235,14.4813314 C28.6176168,14.3672217 28.5897686,14.2809602 28.5327138,14.2239054 C26.8466077,10.0252132 22.8495092,7.22613028 18.2500747,7.31239175 C12.1092496,7.36944658 7.05364809,12.4528962 7.05364809,18.7649266 C7.05364809,25.1340118 12.1092496,30.2760106 18.2500747,30.2760106 C22.7061929,30.2760106 26.5905402,27.5338467 28.3601909,23.6494994 C28.4464523,23.506319 28.475659,23.3922093 28.5327138,23.2780996 C28.5327138,23.2780996 34.4161537,27.4767919 34.4161537,27.4767919 Z" id="path6"></path>
                    </g>
                    <g id="g8" transform="translate(42.021924, 0.573129)">
                        <path d="M0,0 C0,0 7.02575914,0 7.02575914,0 C7.02575914,0 7.02575914,13.1095702 7.02575914,13.1095702 C7.02575914,13.1095702 25.4775634,13.1095702 25.4775634,13.1095702 C25.4775634,13.1095702 25.4775634,0 25.4775634,0 C25.4775634,0 32.5603774,0 32.5603774,0 C32.5603774,0 32.5603774,36.472437 32.5603774,36.472437 C32.5603774,36.472437 25.4775634,36.472437 25.4775634,36.472437 C25.4775634,36.472437 25.4775634,20.4496743 25.4775634,20.4496743 C25.4775634,20.4496743 7.02575914,20.4496743 7.02575914,20.4496743 C7.02575914,20.4496743 7.02575914,36.472437 7.02575914,36.472437 C7.02575914,36.472437 0,36.472437 0,36.472437 C0,36.472437 0,0 0,0 Z" id="path10"></path>
                    </g>
                    <g id="g12" transform="translate(173.748082, 0.573129)">
                        <path d="M0,36.472437 C0,36.472437 0,0 0,0 C0,0 25.5048682,0 25.5048682,0 C25.5048682,0 25.5048682,7.36795229 25.5048682,7.36795229 C25.5048682,7.36795229 7.11147724,7.36795229 7.11147724,7.36795229 C7.11147724,7.36795229 7.11147724,14.6510016 7.11147724,14.6510016 C7.11147724,14.6510016 24.1056664,14.6510016 24.1056664,14.6510016 C24.1056664,14.6510016 24.1056664,21.9341867 24.1056664,21.9341867 C24.1056664,21.9341867 7.11147724,21.9341867 7.11147724,21.9341867 C7.11147724,21.9341867 7.11147724,29.2172359 7.11147724,29.2172359 C7.11147724,29.2172359 28.10358,29.2172359 28.10358,29.2172359 C28.10358,29.2172359 28.10358,36.472437 28.10358,36.472437 C28.10358,36.472437 0,36.472437 0,36.472437 Z" id="path14"></path>
                    </g>
                    <g id="g16" transform="translate(211.819956, 0.573129)">
                        <path d="M0,36.472437 C0,36.472437 0,0 0,0 C0,0 7.14000465,0 7.14000465,0 C7.14000465,0 7.14000465,29.2172359 7.14000465,29.2172359 C7.14000465,29.2172359 26.9624833,29.2172359 26.9624833,29.2172359 C26.9624833,29.2172359 26.9624833,36.472437 26.9624833,36.472437 C26.9624833,36.472437 0,36.472437 0,36.472437 Z" id="path18"></path>
                    </g>
                    <g id="g20" transform="translate(128.278098, 0.573129)">
                        <path d="M7.14000465,36.472437 C7.14000465,36.472437 6.91178533,36.472437 6.91178533,36.472437 C6.91178533,36.472437 0,36.472437 0,36.472437 C0,36.472437 0,0 0,0 C0,0 0.513493485,0 0.513493485,0 C0.513493485,0 9.90988089,0 9.90988089,0 C9.90988089,0 25.5333956,21.9341867 25.5333956,21.9341867 C25.5333956,21.9341867 25.5333956,0 25.5333956,0 C25.5333956,0 32.6163455,0 32.6163455,0 C32.6163455,0 32.6163455,36.472437 32.6163455,36.472437 C32.6163455,36.472437 26.9611249,36.472437 26.9611249,36.472437 C26.9611249,36.472437 7.14000465,8.96779694 7.14000465,8.96779694 C7.14000465,8.96779694 7.14000465,36.472437 7.14000465,36.472437 Z" id="path22"></path>
                    </g>
                    <g id="g24" transform="translate(80.265506, 0.573129)">
                        <path d="M21.1355549,7.36795229 C21.1355549,7.36795229 14.909786,21.9341867 14.909786,21.9341867 C14.909786,21.9341867 27.6478205,21.9341867 27.6478205,21.9341867 C27.6478205,21.9341867 21.1355549,7.36795229 21.1355549,7.36795229 Z M11.7099608,29.2172359 C11.7099608,29.2172359 8.4544393,36.472437 8.4544393,36.472437 C8.4544393,36.472437 0,36.472437 0,36.472437 C0,36.472437 16.166079,0 16.166079,0 C16.166079,0 26.0479759,0 26.0479759,0 C26.0479759,0 42.3280287,36.472437 42.3280287,36.472437 C42.3280287,36.472437 33.8735894,36.472437 33.8735894,36.472437 C33.8735894,36.472437 30.5902197,29.2172359 30.5902197,29.2172359 C30.5902197,29.2172359 11.7099608,29.2172359 11.7099608,29.2172359 Z" id="path26"></path>
                    </g>
                </g>
            </g>
        </g>
    </g>
</svg>