<?xml version="1.0" encoding="UTF-8"?>
<svg width="1015px" height="246px" viewBox="0 0 1015 246" version="1.1" xmlns="http://www.w3.org/2000/svg" xmlns:xlink="http://www.w3.org/1999/xlink">
    <title>Untitled 7</title>
    <defs>
        <filter id="filter-1">
            <feColorMatrix in="SourceGraphic" type="matrix" values="0 0 0 0 0.890196 0 0 0 0 0.164706 0 0 0 0 0.145098 0 0 0 1.000000 0"></feColorMatrix>
        </filter>
    </defs>
    <g id="Page-1" stroke="none" stroke-width="1" fill="none" fill-rule="evenodd">
        <g filter="url(#filter-1)" id="rpho-logo">
            <g>
                <path d="M442.39,224 L424.66,211.48 L443.39,184.93 C445.397618,182.025354 444.682792,178.044663 441.79,176.02 C440.410649,175.054989 438.702881,174.681149 437.046508,174.981625 C435.390135,175.282101 433.922497,176.231978 432.97,177.62 L414.24,204.06 L412.64,202.96 L412.64,175.45 L398.71,175.45 L398.71,235.06 L412.64,235.06 L412.64,218.6 L435.08,234.43 C436.166279,235.185922 437.456602,235.593944 438.78,235.600115 C441.574167,235.616745 444.050928,233.805021 444.881229,231.137016 C445.711531,228.469012 444.700229,225.571779 442.39,224 L442.39,224 Z" id="Path" fill="#FFFFFF" fill-rule="nonzero"></path>
                <path d="M453.55,175.45 L453.55,235.06 L487.81,235.06 L487.81,221.93 L467.38,221.93 L467.38,211.68 L482.87,211.68 C486.58,211.68 489.68,208.77 489.68,205.37 C489.53899,201.733228 486.508644,198.880876 482.87,198.96 L467.38,198.96 L467.38,188.58 L487.81,188.58 L487.81,175.45 L453.55,175.45 Z" id="Path" fill="#FFFFFF" fill-rule="nonzero"></path>
                <path d="M536.63,217.5 C536.63,208.5 530.32,201.4 520,199.19 L517.2,198.6 C511.29,197.4 511.2,193.99 511.2,192.79 C511.2,189.79 514.2,186.99 518.31,186.99 C520.218582,186.976554 522.068143,187.651058 523.52,188.89 C526.394798,191.33288 530.66363,191.158819 533.33,188.49 C534.572684,187.294546 535.24097,185.622229 535.164407,183.899582 C535.087845,182.176935 534.273837,180.570498 532.93,179.49 C528.878888,175.966272 523.679004,174.045659 518.31,174.09 C506.79,174.09 497.37,182.49 497.37,192.79 C497.37,202 503.48,209 513.8,211.2 L516.61,211.8 C519.91,212.5 522.72,214.3 522.72,217.5 C522.72,220.5 519.61,223.3 515.6,223.3 C512.186664,223.242376 508.954184,221.754927 506.69,219.2 L504.69,216.7 L495.27,226.7 L496.07,227.6 C500.962533,233.271478 508.110404,236.492229 515.6,236.4 C527,236.4 536.63,228 536.63,217.5 Z" id="Path" fill="#FFFFFF" fill-rule="nonzero"></path>
                <path d="M572.44,201.1 C576.15,201.1 579.25,198.19 579.25,194.79 C579.10899,191.153228 576.078644,188.300876 572.44,188.38 L563.83,188.38 L563.83,181 C563.688632,177.283214 560.634473,174.343011 556.915,174.343011 C553.195527,174.343011 550.141368,177.283214 550,181 L550,188.38 L546.8,188.38 C544.407383,188.190104 542.110635,189.35908 540.856114,191.405259 C539.601592,193.451439 539.601592,196.028561 540.856114,198.074741 C542.110635,200.12092 544.407383,201.289896 546.8,201.1 L550,201.1 L550,235.1 L574.54,235.1 L574.54,221.93 L563.83,221.93 L563.83,201.1 L572.44,201.1 Z" id="Path" fill="#FFFFFF" fill-rule="nonzero"></path>
                <path d="M355.47,214.82 L364.19,214.82 L372.9,231.82 C374.039653,234.146028 376.409827,235.614759 379,235.60011 C380.089624,235.597896 381.164102,235.344675 382.14,234.86 C385.444264,233.129804 386.738115,229.060865 385.04,225.74 L378.43,212.74 C384.43,209.53 388.150147,203.12 388.150147,195.41 C388.169944,190.212404 386.156573,185.213069 382.54,181.48 C378.93,177.78 374.62,175.48 365.91,175.48 L341.55,175.48 L341.55,235.09 L355.47,235.09 L355.47,214.82 Z M355.47,188.48 L367.89,188.48 C371.89,188.48 374.2,191.58 374.2,195.39 C374.2,199.2 371.9,202.3 367.89,202.3 L355.47,202.3 L355.47,188.48 Z" id="Shape" fill="#FFFFFF" fill-rule="nonzero"></path>
                <path d="M299.44,174.09 C280.7,174.09 268.53,188.02 268.53,205.25 C268.53,222.48 280.7,236.4 299.44,236.4 C318.18,236.4 330.35,222.4 330.35,205.25 C330.35,188.1 318.28,174.09 299.44,174.09 Z M299.44,223.64 C288.82,223.64 283.29,215.47 283.29,205.25 C283.29,195.03 288.82,186.75 299.44,186.75 C310.06,186.75 315.59,195.03 315.59,205.25 C315.59,215.47 310.06,223.64 299.44,223.64 Z" id="Shape" fill="#FFFFFF" fill-rule="nonzero"></path>
                <path d="M289.35,51.34 L298.05,51.34 L306.75,68.34 C307.802075,70.5697628 309.981654,72.0526566 312.441965,72.2125735 C314.902276,72.3724904 317.255477,71.1842212 318.587343,69.1094114 C319.91921,67.0346016 320.019787,64.4003233 318.85,62.23 L312.25,49.23 C318.25,46.03 321.9502,39.63 321.9502,31.93 C321.973302,26.7425458 319.962923,21.7525003 316.35,18.03 C312.75,14.33 308.45,12.03 299.75,12.03 L275.45,12.03 L275.45,71.55 L289.35,71.55 L289.35,51.34 Z M289.35,25.04 L301.75,25.04 C305.75,25.04 308.05,28.14 308.05,31.94 C308.05,35.74 305.75,38.84 301.75,38.84 L289.35,38.84 L289.35,25.04 Z" id="Shape" fill="#FFFFFF" fill-rule="nonzero"></path>
                <path d="M531.14,58.54 L510.75,58.54 L510.75,48.3 L526.22,48.3 C529.812349,48.380429 532.816909,45.5885815 533,42 C532.853787,38.3751116 529.837195,35.531784 526.21,35.6 L510.75,35.6 L510.75,25.14 L531.14,25.14 L531.14,12 L497,12 L497,71.6 L531.19,71.6 L531.14,58.54 Z" id="Path" fill="#FFFFFF" fill-rule="nonzero"></path>
                <path d="M558.23,51.34 L566.93,51.34 L575.63,68.34 C576.721446,70.5032434 578.884061,71.9198829 581.303208,72.0562843 C583.722355,72.1926857 586.030508,71.0281262 587.358208,69.0012842 C588.685908,66.9744421 588.831447,64.3932432 587.74,62.23 L581.14,49.23 C587.14,46.03 590.8402,39.63 590.8402,31.93 C590.863302,26.7425458 588.852923,21.7525003 585.24,18.03 C581.63,14.33 577.34,12.03 568.64,12.03 L544.33,12.03 L544.33,71.55 L558.23,71.55 L558.23,51.34 Z M558.23,25.04 L570.63,25.04 C574.63,25.04 576.94,28.14 576.94,31.94 C576.94,35.74 574.64,38.84 570.63,38.84 L558.23,38.84 L558.23,25.04 Z" id="Shape" fill="#FFFFFF" fill-rule="nonzero"></path>
                <path d="M648.12,41.84 C648.12,30.54 641.42,20.24 630.52,15.14 C625.62,12.84 620.32,12.04 612.02,12.04 L600.72,12.04 L600.72,71.64 L612,71.64 C620.4,71.64 625.6,70.74 630.5,68.44 C641.42,63.34 648.12,53.24 648.12,41.84 Z M624.32,56.84 C622.52,57.64 620.12,58.44 614.62,58.54 L614.62,25 C620.12,25.2 622.52,25.9 624.32,26.7 C630.298289,29.3696719 634.195126,35.2538943 634.32,41.8 C634.32,48.24 630.42,53.84 624.32,56.84 Z" id="Shape" fill="#FFFFFF" fill-rule="nonzero"></path>
                <path d="M755.07,31.74 L755.07,65.55 C755.211263,69.2613371 758.260975,72.1971788 761.975,72.1971788 C765.689025,72.1971788 768.738737,69.2613371 768.88,65.55 L768.88,18 C768.84853,15.3855763 767.28121,13.0345971 764.88,12 C762.392535,11.0307873 759.577998,11.4491645 757.48,13.1 L741.07,26.2 L724.57,13.1 C722.486283,11.5058035 719.730968,11.0906191 717.27,12 C714.843195,13.0207526 713.239128,15.3681678 713.17,18 L713.17,65.55 C713.592709,69.0676597 716.577033,71.7148353 720.12,71.7148353 C723.662967,71.7148353 726.647291,69.0676597 727.07,65.55 L727.07,31.74 L741.07,43.04 L755.07,31.74 Z" id="Path" fill="#FFFFFF" fill-rule="nonzero"></path>
                <path d="M818.77,54 C818.77,45 812.47,37.9 802.17,35.7 L799.37,35.1 C793.47,33.9 793.37,30.5 793.37,29.3 C793.37,26.3 796.37,23.5 800.47,23.5 C802.375615,23.4862681 804.22213,24.1609561 805.67,25.4 C808.543209,27.8366852 812.804931,27.6627374 815.47,25 C816.712684,23.8045457 817.38097,22.1322289 817.304407,20.4095819 C817.227845,18.6869349 816.413837,17.0804978 815.07,16 C811.024063,12.4808507 805.832132,10.5605473 800.47,10.599404 C788.97,10.599404 779.57,19 779.57,29.3 C779.57,38.5 785.67,45.5 795.97,47.7 L798.77,48.3 C802.07,49 804.87,50.8 804.87,54 C804.87,57 801.77,59.8 797.77,59.8 C794.359324,59.7432781 791.129589,58.2554223 788.87,55.7 L786.87,53.2 L777.47,63.2 L778.27,64.1 C783.150696,69.7701656 790.289119,72.9916081 797.77,72.9 C809.17,73 818.77,64.54 818.77,54 Z" id="Path" fill="#FFFFFF" fill-rule="nonzero"></path>
                <path d="M480.15,37.74 C483.85,37.74 486.95,34.84 486.95,31.44 C486.803734,27.8111482 483.78105,24.9662688 480.15,25.04 L471.55,25.04 L471.55,17.54 C471.55,13.7292352 468.460765,10.64 464.65,10.64 C460.839235,10.64 457.75,13.7292352 457.75,17.54 L457.75,25 L454.55,25 C452.799349,24.9461454 451.099083,25.5903575 449.823656,26.7907594 C448.548229,27.9911612 447.802247,29.6493005 447.75,31.4 C447.907011,35.0087288 450.939802,37.8185203 454.55,37.7 L457.75,37.7 L457.75,71.6 L482.25,71.6 L482.25,58.54 L471.55,58.54 L471.55,37.74 L480.15,37.74 Z" id="Path" fill="#FFFFFF" fill-rule="nonzero"></path>
                <path d="M434.49,37.74 C438.19,37.74 441.29,34.84 441.29,31.44 C441.143734,27.8111482 438.12105,24.9662688 434.49,25.04 L425.89,25.04 L425.89,17.54 C425.89,13.7292352 422.800765,10.64 418.99,10.64 C415.179235,10.64 412.09,13.7292352 412.09,17.54 L412.09,25 L408.89,25 C405.242544,24.8877984 402.194209,27.7526063 402.08,31.4 C402.237002,35.0127576 405.275964,37.8241317 408.89,37.7 L412.09,37.7 L412.09,71.6 L436.59,71.6 L436.59,58.54 L425.89,58.54 L425.89,37.74 L434.49,37.74 Z" id="Path" fill="#FFFFFF" fill-rule="nonzero"></path>
                <path d="M363.67,10.84 C344.96,10.84 332.81,24.74 332.81,41.94 C332.81,59.14 345,73 363.67,73 C382.34,73 394.54,59 394.54,41.9 C394.54,24.8 382.49,10.84 363.67,10.84 Z M363.67,60.3 C353.07,60.3 347.55,52.14 347.55,41.94 C347.55,31.74 353.07,23.48 363.67,23.48 C374.27,23.48 379.79,31.74 379.79,41.94 C379.79,52.14 374.27,60.3 363.67,60.3 Z" id="Shape" fill="#FFFFFF" fill-rule="nonzero"></path>
                <path d="M679.19,10.64 C665.91,10.64 657.98,17.23 657.54,17.08 L662.82,28.08 C667.845128,25.3106143 673.455166,23.7718805 679.19,23.59 C683.51,23.59 686.29,26.39 686.29,29.39 L686.29,33.26 L670.65,37.61 C660.85,39.71 654.86,46.46 654.86,55.02 C654.86,65.02 663.99,73.02 674.86,73.02 C680.549873,72.8942646 685.986592,70.6432347 690.1,66.71 L691.73,71.71 L700.13,71.71 L700.13,29.34 C700.09,19 690.69,10.64 679.19,10.64 Z M675.85,60.54 C671.85,60.54 668.75,57.54 668.75,54.34 C668.75,50.91 671.55,48.99 674.85,48.23 L686.24,44.87 L686.24,54.2 L684.78,56.15 C682.587387,58.8473697 679.324977,60.4511749 675.85,60.54 Z" id="Shape" fill="#FFFFFF" fill-rule="nonzero"></path>
                <polygon id="Path" fill="#FFFFFF" fill-rule="nonzero" points="481.25 128.62 497.85 128.62 497.85 153.02 511.75 153.02 511.75 93.41 497.85 93.41 497.85 117.41 481.25 117.41 481.25 93.41 467.35 93.41 467.35 153.02 481.25 153.02"></polygon>
                <path d="M289.35,132.72 L303.65,132.72 C314.55,132.72 321.9502,124.21 321.9502,113.31 C321.973302,108.122546 319.962923,103.1325 316.35,99.41 C312.75,95.71 308.45,93.41 299.75,93.41 L275.45,93.41 L275.45,153 L289.35,153 L289.35,132.72 Z M289.35,106.41 L301.75,106.41 C305.75,106.41 308.05,109.51 308.05,113.31 C308.05,117.11 305.75,120.21 301.75,120.21 L289.35,120.21 L289.35,106.41 Z" id="Shape" fill="#FFFFFF" fill-rule="nonzero"></path>
                <polygon id="Path" fill="#FFFFFF" fill-rule="nonzero" points="364.42 153.02 378.32 153.02 378.32 93.41 364.42 93.41 364.42 117.41 347.82 117.41 347.82 93.41 333.92 93.41 333.92 153.02 347.82 153.02 347.82 128.62 364.42 128.62"></polygon>
                <polygon id="Path" fill="#FFFFFF" fill-rule="nonzero" points="459 140.22 436.42 140.22 435.92 93.41 422.52 93.41 422.44 153.02 459 153.02"></polygon>
                <polygon id="Path" fill="#FFFFFF" fill-rule="nonzero" points="394.2 115.12 394.62 153.02 408.02 153.02 408.11 115.12"></polygon>
                <path d="M629.8802,113.31 C629.903302,108.122546 627.892923,103.1325 624.28,99.41 C620.68,95.71 616.38,93.41 607.68,93.41 L583.38,93.41 L583.38,152.92 L597.28,152.92 L597.28,132.72 L606,132.72 L614.7,149.72 C615.752075,151.949763 617.931654,153.432657 620.391965,153.592574 C622.852276,153.75249 625.205477,152.564221 626.537343,150.489411 C627.86921,148.414602 627.969787,145.780323 626.8,143.61 L620.2,130.61 C626.18,127.41 629.8802,121 629.8802,113.31 Z M609.68,120.21 L597.28,120.21 L597.28,106.41 L609.68,106.41 C613.68,106.41 615.98,109.51 615.98,113.31 C615.98,117.11 613.68,120.21 609.68,120.21 L609.68,120.21 Z" id="Shape" fill="#FFFFFF" fill-rule="nonzero"></path>
                <path d="M693,93.41 C690.512302,92.4428639 687.698825,92.8610835 685.6,94.51 L669.2,107.61 L652.7,94.51 C650.616283,92.9158035 647.860968,92.5006191 645.4,93.41 C642.973195,94.4307526 641.369128,96.7781678 641.3,99.41 L641.3,146.92 C641.722709,150.43766 644.707033,153.084835 648.25,153.084835 C651.792967,153.084835 654.777291,150.43766 655.2,146.92 L655.2,113.11 L669.2,124.41 L683.2,113.11 L683.2,146.92 C683.397473,150.586574 686.428112,153.458382 690.1,153.458382 C693.771888,153.458382 696.802527,150.586574 697,146.92 L697,99.41 C696.973663,96.7939911 695.404648,94.4404686 693,93.41 Z" id="Path" fill="#FFFFFF" fill-rule="nonzero"></path>
                <path d="M814.29,112 L792.38,94.5 C790.316372,92.859072 787.535542,92.4400428 785.08,93.4 C782.653195,94.4207526 781.049128,96.7681678 780.98,99.4 L780.98,146.91 C781.402709,150.42766 784.387033,153.074835 787.93,153.074835 C791.472967,153.074835 794.457291,150.42766 794.88,146.91 L794.88,112.41 L814.29,128 L814.29,153 L828.09,153 L828.09,93.41 L814.29,93.41 L814.29,112 Z" id="Path" fill="#FFFFFF" fill-rule="nonzero"></path>
                <path d="M891.94,117.11 L889.14,116.51 C883.24,115.31 883.14,111.91 883.14,110.71 C883.14,107.71 886.14,104.91 890.23,104.91 C892.138893,104.894755 893.989063,105.569481 895.44,106.81 C898.313209,109.246685 902.574931,109.072737 905.24,106.41 C906.482684,105.214546 907.15097,103.542229 907.074407,101.819582 C906.997845,100.096935 906.183837,98.4904978 904.84,97.41 C900.792929,93.8849451 895.596867,91.9608726 890.23,91.9994148 C878.73,91.9994148 869.34,100.4 869.34,110.7 C869.34,119.9 875.43,126.9 885.73,129.11 L888.54,129.7 C891.84,130.41 894.64,132.2 894.64,135.41 C894.64,138.41 891.54,141.2 887.53,141.2 C884.120446,141.138367 880.892593,139.651378 878.63,137.1 L876.63,134.61 L867.22,144.61 L868.02,145.51 C872.902383,151.177908 880.039696,154.398849 887.52,154.31 C898.93,154.31 908.520047,145.9 908.520047,135.41 C908.54,126.41 902.24,119.31 891.94,117.11 Z" id="Path" fill="#FFFFFF" fill-rule="nonzero"></path>
                <path d="M952.44,140.22 L948.84,140.22 C939.14,140.22 931.24,132.32 931.24,123.12 C931.24,113.92 939.14,106.12 948.84,106.12 L952.34,106.12 C956.04,106.12 959.14,103.22 959.14,99.82 C959.041798,96.1540974 956.006602,93.2528068 952.34,93.32 L948.84,93.32 C931.54,93.32 917.54,107.02 917.54,123.13 C917.54,139.42 931.54,153.03 948.84,153.03 L952.44,153.03 C954.811873,153.162643 957.0626,151.972649 958.288492,149.937812 C959.514384,147.902975 959.514384,145.357025 958.288492,143.322188 C957.0626,141.287351 954.811873,140.097357 952.44,140.23 L952.44,140.22 Z" id="Path" fill="#FFFFFF" fill-rule="nonzero"></path>
                <polygon id="Path" fill="#FFFFFF" fill-rule="nonzero" points="1000.16 93.41 1000.16 117.41 983.56 117.41 983.56 93.41 969.66 93.41 969.66 153.02 983.56 153.02 983.56 128.62 1000.16 128.62 1000.16 153.02 1014.07 153.02 1014.07 93.41"></polygon>
                <circle id="Oval" fill="#FFFFFF" fill-rule="nonzero" transform="translate(402.111945, 100.247705) rotate(-76.760000) translate(-402.111945, -100.247705) " cx="402.111945" cy="100.247705" r="8.02"></circle>
                <polygon id="Path" fill="#FFFFFF" fill-rule="nonzero" points="842.79 115.12 843.22 153.02 856.62 153.02 856.7 115.12"></polygon>
                <circle id="Oval" fill="#FFFFFF" fill-rule="nonzero" transform="translate(850.680696, 100.231716) rotate(-45.000000) translate(-850.680696, -100.231716) " cx="850.680696" cy="100.231716" r="8.02"></circle>
                <path d="M740.54,92.21 C721.83,92.21 709.68,106.11 709.68,123.31 C709.68,140.51 721.83,154.42 740.54,154.42 C759.25,154.42 771.4,140.42 771.4,123.31 C771.4,106.2 759.35,92.21 740.54,92.21 Z M740.54,141.68 C729.94,141.68 724.41,133.52 724.41,123.31 C724.41,113.1 729.94,104.85 740.54,104.85 C751.14,104.85 756.66,113.11 756.66,123.31 C756.66,133.51 751.14,141.68 740.54,141.68 Z" id="Shape" fill="#FFFFFF" fill-rule="nonzero"></path>
                <path d="M548.67,92 C535.39,92 527.46,98.59 527.02,98.44 L532.3,109.44 C532.3,109.44 539.92,104.94 548.67,104.94 C552.99,104.94 555.77,107.74 555.77,110.74 L555.77,114.62 L540.13,118.96 C530.33,121.06 524.34,127.81 524.34,136.37 C524.34,146.37 533.47,154.37 544.34,154.37 C550.024728,154.22102 555.447542,151.948433 559.54,148 L561.17,153 L569.57,153 L569.57,110.71 C569.57,100.41 560.18,92 548.67,92 Z M545.33,141.9 C541.33,141.9 538.23,138.9 538.23,135.7 C538.23,132.27 541.03,130.35 544.33,129.6 L555.72,126.23 L555.72,135.56 L554.26,137.56 C552.059754,140.24241 548.798454,141.831062 545.33,141.91 L545.33,141.9 Z" id="Shape" fill="#FFFFFF" fill-rule="nonzero"></path>
                <polygon id="Path" fill="#FFFFFF" fill-rule="nonzero" points="208.11 89.65 171.83 74.61 156.79 38.33 123.22 56.8 189.63 123.22"></polygon>
                <polygon id="Path" fill="#FFFFFF" fill-rule="nonzero" points="156.79 208.11 171.83 171.83 208.11 156.79 189.63 123.22 123.22 189.63"></polygon>
                <polygon id="Path" fill="#FFFFFF" fill-rule="nonzero" points="89.65 38.33 74.61 74.61 38.33 89.65 56.8 123.22 123.22 56.8"></polygon>
                <polygon id="Path" fill="#FFFFFF" fill-rule="nonzero" points="89.65 208.11 123.22 189.63 56.8 123.22 38.33 156.79 74.61 171.83"></polygon>
                <path d="M6,123.22 C6,135.41 -4.74,148.17 5.17,172.1 C15.08,196.03 31.7,197.46 40.32,206.1 C48.94,214.74 50.32,231.34 74.32,241.25 C98.32,251.16 111.02,240.42 123.21,240.42 C135.4,240.42 148.16,251.17 172.09,241.25 C196.02,231.33 197.45,214.72 206.09,206.1 C214.73,197.48 231.33,196.05 241.24,172.1 C251.15,148.15 240.41,135.41 240.41,123.22 C240.41,111.03 251.16,98.22 241.24,74.33 C231.32,50.44 214.7,49 206.08,40.35 C197.46,31.7 196,15.11 172.1,5.2 C148.2,-4.71 135.41,6 123.22,6 C111.03,6 98.22,-4.74 74.33,5.17 C50.44,15.08 49,31.73 40.35,40.35 C31.7,48.97 15.11,50.35 5.2,74.35 C-4.71,98.35 6,111 6,123.22 Z M53.45,53.45 C65.23,41.66 64.23,29.45 81.45,22.3 C98.67,15.15 106.58,24.55 123.25,24.55 C139.92,24.55 147.86,15.18 165.05,22.3 C182.24,29.42 181.24,41.66 193.05,53.45 C204.86,65.24 217.05,64.23 224.19,81.45 C231.33,98.67 221.95,106.58 221.95,123.25 C221.95,139.92 231.31,147.86 224.19,165.05 C217.07,182.24 204.77,181.21 193,193 C181.23,204.79 182.22,217 165,224.14 C147.78,231.28 139.86,221.9 123.2,221.9 C106.54,221.9 98.59,231.26 81.4,224.14 C64.21,217.02 65.21,204.78 53.4,193 C41.59,181.22 29.4,182.22 22.25,165 C15.1,147.78 24.5,139.86 24.5,123.2 C24.5,106.54 15.13,98.59 22.25,81.4 C29.37,64.21 41.66,65.23 53.45,53.45 Z" id="Shape" fill="#FFFFFF" fill-rule="nonzero"></path>
            </g>
        </g>
    </g>
</svg>