<svg id="Layer_1" data-name="Layer 1" xmlns="http://www.w3.org/2000/svg" viewBox="0 0 257.572 76.666"><defs><style>.cls-2{fill:#959ca5}</style></defs><path fill="none" d="M0 0h34.016v68.031H0z"/><path class="cls-2" d="M178.271 112.924a.42.42 0 1 1-.146-.576.422.422 0 0 1 .146.576zm-.012-.802a.684.684 0 0 0-1.012.755.677.677 0 0 0 .313.42.684.684 0 1 0 .7-1.175zm-5.773.802a.422.422 0 0 1-.576.146.42.42 0 1 1 .576-.146zm-.012-.802a.684.684 0 0 0-.7 1.175.684.684 0 1 0 .7-1.175zm3.126-5.735a.569.569 0 0 1 0-.967.592.592 0 1 0-1.184 0 .569.569 0 0 1 0 .967.57.57 0 0 1 0 .969.568.568 0 0 1 0 .923.592.592 0 0 0 1.184 0 .57.57 0 0 1 0-.923.57.57 0 0 1 0-.969zm-.592-1.297a.33.33 0 1 1-.33.33.33.33 0 0 1 .33-.33zm0 3.517a.329.329 0 1 1 .33-.328.33.33 0 0 1-.33.328zm0-.923a.33.33 0 1 1 .33-.328.33.33 0 0 1-.33.328zm0-.969a.329.329 0 1 1 .33-.328.329.329 0 0 1-.33.328zm-3.668 42.815a.42.42 0 1 1-.42-.423.42.42 0 0 1 .42.422zm-.42-.685a.684.684 0 1 0 .683.684.685.685 0 0 0-.684-.684zm8.32.685a.42.42 0 1 1-.421-.423.42.42 0 0 1 .42.422zm-.421-.685a.684.684 0 1 0 .685.684.684.684 0 0 0-.685-.684zm3.951-1.394a.42.42 0 1 1-.42-.422.42.42 0 0 1 .42.422zm-.42-.684a.684.684 0 1 0 .683.684.684.684 0 0 0-.684-.684zm-6.922 3.453a.42.42 0 1 1-.42-.42.422.422 0 0 1 .42.42zm-.42-.683a.685.685 0 1 0 .685.684.685.685 0 0 0-.685-.684zm.42 8.254a.42.42 0 1 1-.42-.42.421.421 0 0 1 .42.42zm-.42-.685a.685.685 0 1 0 .685.685.686.686 0 0 0-.685-.685zm3.375-2.482l-.14.02a1.796 1.796 0 0 0-1.29 1.32 1.575 1.575 0 0 1-.752 1.02 1.303 1.303 0 0 1-1.062-.108 2.853 2.853 0 0 0-.131-.055 2.448 2.448 0 0 0-.132.055 1.303 1.303 0 0 1-1.061.107 1.576 1.576 0 0 1-.752-1.02 1.795 1.795 0 0 0-1.291-1.318l-.139-.021.03-.139c.007-.033.19-.819 1.382-.819a1.297 1.297 0 0 1 1.07.51 1.035 1.035 0 0 1 1.785 0 1.297 1.297 0 0 1 1.07-.51c1.193 0 1.376.786 1.383.82zm-1.413-.693a1.054 1.054 0 0 0-.992.613l-.2.378-.048-.425a.744.744 0 0 0-1.444 0l-.05.425-.198-.378a1.054 1.054 0 0 0-.993-.613 1.105 1.105 0 0 0-1.075.492 2.148 2.148 0 0 1 1.344 1.455 1.352 1.352 0 0 0 .61.865 1.083 1.083 0 0 0 .848-.11c.085-.036.236-.093.236-.093s.15.057.236.094a1.082 1.082 0 0 0 .848.11 1.352 1.352 0 0 0 .61-.866 2.148 2.148 0 0 1 1.343-1.455 1.105 1.105 0 0 0-1.075-.492zm.024-28.542l-1.023-.43-.08.843h.108a1.478 1.478 0 0 0 .868-.308zm-.885.209l.034-.352.453.19a1.278 1.278 0 0 1-.487.162z" transform="translate(-158 -95.766)"/><path class="cls-2" d="M181.116 115.344a.625.625 0 0 0 .09-.113.632.632 0 0 0-.22-.864.562.562 0 0 0-.153-.064v-.633a.63.63 0 0 0 .141-1.145.859.859 0 0 0-.086-.04v-.188l.026-.098.284-1.105c.225-.307.445-.617.659-.926a.574.574 0 0 0 .196.035.594.594 0 0 0 .594-.593.579.579 0 0 0-.07-.275.652.652 0 0 0 .114.02.594.594 0 0 0 .594-.592.572.572 0 0 0-.221-.43c.009.001.02.005.03.005a.593.593 0 0 0 .592-.592.574.574 0 0 1 .26-1.023.586.586 0 0 0-.479-.57.568.568 0 0 0 .14-.356.593.593 0 0 0-.593-.593.581.581 0 0 0-.264.064.591.591 0 0 0-.588-.564.569.569 0 0 1-.926.015.59.59 0 0 0-.525.33.583.583 0 0 0-.445-.216.576.576 0 0 0-.093.024.589.589 0 0 0-.554-.8.58.58 0 0 0-.327.115.59.59 0 0 0-.584-.548.581.581 0 0 0-.48.265 1.613 1.613 0 0 1-1.432.014.588.588 0 0 0-.405.163 1.364 1.364 0 0 0 .122-.574 1.265 1.265 0 0 0-1.076-1.203l.026-.435.82.085v-1.183l-.805.083.081-.837h-1.104l.08.837-.8-.083v1.183l.817-.086.026.436a1.23 1.23 0 0 0-1.038 1.203 1.45 1.45 0 0 0 .11.564.588.588 0 0 0-.396-.153.574.574 0 0 0-.345.122 2.197 2.197 0 0 1-1.566-.402.59.59 0 0 0-.584.55.579.579 0 0 0-.327-.116.594.594 0 0 0-.593.593.58.58 0 0 0 .04.204.63.63 0 0 0-.093-.021.58.58 0 0 0-.446.216.589.589 0 0 0-.524-.33.569.569 0 0 1-.926-.015.592.592 0 0 0-.589.567.569.569 0 0 0-.264-.067.594.594 0 0 0-.594.593.578.578 0 0 0 .141.356 2.467 2.467 0 0 1-.149 1.494.59.59 0 0 0 .581.592.557.557 0 0 0 .064-.013c-.014.022-.038.032-.05.055a.594.594 0 0 0-.063.263.584.584 0 0 0 .531.58.566.566 0 0 0 .52.836c.254.375.6.857.884 1.245l.26 1.116v.265a.677.677 0 0 0-.136.16.631.631 0 0 0 .219.862v.709a.63.63 0 0 0-.4.747.648.648 0 0 0 .125.244c-5.67 2.93-9.663 9.858-9.663 17.917a21.161 21.161 0 0 0 6.097 15.35l-.513.607.087.086c.008.007.754.738 1.301 1.197a10.883 10.883 0 0 0 1.492.973l.11.06.445-.707a13.504 13.504 0 0 0 4.193 1.59v.807l.11.02a11.63 11.63 0 0 0 4.76 0l.108-.02v-.8a14.294 14.294 0 0 0 6.993-3.695h.006v-.005a17.733 17.733 0 0 0 2.388-2.767 22.278 22.278 0 0 0 3.825-12.696c0-8.026-3.96-14.93-9.593-17.88zm-.265-.75a.363.363 0 0 1 .01.62 13.347 13.347 0 0 0-2.849-1.042c.93.086 1.838.211 2.714.377a.377.377 0 0 1 .125.045zm-10.962-2.069a.625.625 0 0 0-.462-.07v-.187l.099-.02a29.396 29.396 0 0 1 4.504-.478 1.045 1.045 0 1 0 1.972-.004 29.444 29.444 0 0 1 4.611.48l.015.005v.188a.63.63 0 0 0-.06 1.252v.559a32.286 32.286 0 0 0-11.059.004v-.56a.63.63 0 0 0 .38-1.169zm4.464-.824v-.001a.78.78 0 0 1 1.327-.003.782.782 0 1 1-1.387.116.838.838 0 0 1 .06-.112zm6.614 1.553a.366.366 0 1 1-.339-.551v.002h.075a.365.365 0 0 1 .264.55zm1.086-3.316a.333.333 0 0 1-.172-.05.328.328 0 1 1 .172.05zm.638-.847a.334.334 0 0 1-.328-.328.33.33 0 1 1 .328.328zm.403-1.016a.34.34 0 0 1-.33-.329.329.329 0 1 1 .33.329zm.588-1.352a.326.326 0 0 1-.293.324l-.02.003-.016.002a.328.328 0 0 1-.04-.653l.014-.002.026-.003a.33.33 0 0 1 .329.33zm-.927-1.124a.323.323 0 0 1 .26-.132.33.33 0 0 1 .33.33.326.326 0 0 1-.155.277.334.334 0 0 1-.176.052.329.329 0 0 1-.328-.329.316.316 0 0 1 .07-.198zm-.92-.322l.002-.017a.328.328 0 0 1 .655.037.311.311 0 0 1-.029.13.328.328 0 0 1-.629-.13zm-.599-.295a.327.327 0 0 1 .325.281.323.323 0 0 1 .004.049.328.328 0 0 1-.329.329.324.324 0 0 1-.324-.302l-.003-.022-.001-.007a.33.33 0 0 1 .328-.328zm-.445.707a.576.576 0 0 0 .445.215.568.568 0 0 1 .926-.013.474.474 0 0 1 .729.474.576.576 0 0 0-.13.358.576.576 0 0 1-.26 1.023.583.583 0 0 0 .19.424.593.593 0 0 0-.592.593.565.565 0 0 0 .074.272.587.587 0 0 0-.539.99 38.37 38.37 0 0 1-.496.702l-.363-.16a.5.5 0 0 0-.328-.022 7.4 7.4 0 0 0 1.524-3.209 1.071 1.071 0 0 0-.318-.826 1.17 1.17 0 0 0-.863-.25.607.607 0 0 0-.246-.32.59.59 0 0 0 .247-.251zm-1.826 4.395c.26-.428.464-.784.636-1.105l.044.003a.594.594 0 0 0 .594-.593.575.575 0 0 0-.145-.362.59.59 0 0 0 .552-.584.577.577 0 0 0-.251-.459.588.588 0 0 0 .413-.462.915.915 0 0 1 .669.185.804.804 0 0 1 .23.63c0 .755-.86 2.167-1.844 3.599l-.1.147a.695.695 0 0 0-.307.106.87.87 0 0 0-.257-.235.423.423 0 0 0 .003-.044 1.444 1.444 0 0 0-.237-.826zm1.087-2.97a.33.33 0 1 1 0 .658.358.358 0 0 1-.058-.006.329.329 0 0 1 .058-.652zm-.157-.688a.327.327 0 0 1 .654-.02l.002.006.002.017v.003a.325.325 0 0 1-.27.317.274.274 0 0 1-.059.005.329.329 0 0 1-.329-.328zm-.055 1.7a.325.325 0 0 1 .135.263.33.33 0 0 1-.33.33.34.34 0 0 1-.082-.014.328.328 0 0 1 .082-.645.323.323 0 0 1 .195.066zm.267-2.985a.321.321 0 0 1 .16-.045.33.33 0 0 1 .324.287l.002.016.003.026a.33.33 0 1 1-.49-.284zm-.756-.68a.328.328 0 1 1-.06.19.327.327 0 0 1 .06-.19zm-.97-.262a.328.328 0 0 1 .657.018.336.336 0 0 1-.015.088.327.327 0 0 1-.643-.088zm-.672-.37a.33.33 0 0 1 .33.33l-.002.007-.002.02a.328.328 0 1 1-.326-.357zm-.913.338a.33.33 0 0 1 .327.293l.002.018.002.019a.33.33 0 1 1-.33-.33zm-3.87.319l.002-.02a.315.315 0 1 1-.003.03zm-.583-.657a.33.33 0 0 1 .329.33.325.325 0 0 1-.062.19.327.327 0 0 1-.593-.16l-.002-.02v-.011a.33.33 0 0 1 .328-.33zm-1 .058a.328.328 0 0 1 .327.313v.006l.002.015.001.003a.329.329 0 0 1-.647.073.312.312 0 0 1-.012-.08.33.33 0 0 1 .33-.33zm-.329.817a.978.978 0 0 1 1.33.047.574.574 0 0 0 .342-.13.581.581 0 0 0 .996.283 6.457 6.457 0 0 0 .628.159l.133-.49-.071-.054a1.209 1.209 0 0 1-.567-1.027.99.99 0 0 1 .928-.962l.123-.015-.05-.82-.116-.121-.69.072v-.598l.69.073.125-.131-.07-.724h.523l-.069.724.125.13.693-.072v.598l-.693-.072-.116.122-.05.82.124.015a1.024 1.024 0 0 1 .967.961 1.234 1.234 0 0 1-.603 1.027l-.072.053.133.49a6.33 6.33 0 0 0 .658-.164.581.581 0 0 0 1-.275.553.553 0 0 0 .824-.134.59.59 0 0 0 .52.32.579.579 0 0 1 .91.434.624.624 0 0 0 .111-.025.578.578 0 0 0-.056.207.574.574 0 0 1-.043 1.001.578.578 0 0 1-.172 1.017.582.582 0 0 1-.407.946.591.591 0 0 0 .293.509 23.06 23.06 0 0 1-.565.98.789.789 0 0 0-.294-.16.916.916 0 0 0-.741.152l.026-.075a9.627 9.627 0 0 0 .756-3.228 1.028 1.028 0 0 0-.401-.898 2.561 2.561 0 0 0-2.02.005l-.089.03v.095a25.663 25.663 0 0 1-.331 3.526.983.983 0 0 0-1.36-.02 25.414 25.414 0 0 1-.326-3.506v-.094l-.09-.031a2.567 2.567 0 0 0-2.02-.005 1.03 1.03 0 0 0-.4.898 9.3 9.3 0 0 0 .812 3.312.945.945 0 0 0-.84-.22.787.787 0 0 0-.152.062 20.461 20.461 0 0 1-.492-.858.593.593 0 0 0 .348-.54.586.586 0 0 0-.461-.567.577.577 0 0 0 .132-.356.583.583 0 0 1-.294-.985.59.59 0 0 0-.373-.548.584.584 0 0 0 .208-.442.563.563 0 0 0-.06-.21.52.52 0 0 0 .696-.511zm2.819-.337a1.792 1.792 0 0 0 .31.308l-.022.077a6.376 6.376 0 0 1-.3-.082.582.582 0 0 0 .011-.303zm2.396.297a4.975 4.975 0 0 1-.333.088l-.02-.076a1.882 1.882 0 0 0 .352-.342.58.58 0 0 0-.023.163.59.59 0 0 0 .024.167zm1.292 5.045l-.24.694a.668.668 0 0 0-.482.151.975.975 0 0 0-.594-.333 1.806 1.806 0 0 0-.29-.645 27.181 27.181 0 0 0 .367-3.682c.326-.104 1.223-.343 1.69-.01a.77.77 0 0 1 .291.683 9.473 9.473 0 0 1-.742 3.142zm-3.423-.165a1.787 1.787 0 0 0-.31.668.818.818 0 0 0-.593.329.73.73 0 0 0-.436-.181l-.156-.428a9.549 9.549 0 0 1-.849-3.365.772.772 0 0 1 .29-.682c.468-.334 1.364-.095 1.692.009a26.92 26.92 0 0 0 .362 3.65zm-3.348 1.34a.31.31 0 0 1-.437.273l-.1-.147c-.984-1.432-1.904-2.92-1.904-3.674a.796.796 0 0 1 .246-.643 1.044 1.044 0 0 1 .817-.155.596.596 0 0 0 .243.365.58.58 0 0 0 .227.071.57.57 0 0 0-.153.223.542.542 0 0 0 .446.764.558.558 0 0 0 .28.931.656.656 0 0 0 .131.023c.154.288.332.601.552.968l-.037.04a1.463 1.463 0 0 0-.311.945zm-.506-3.155a.334.334 0 0 1-.171-.05.328.328 0 0 1-.157-.28.31.31 0 0 1 .021-.112.328.328 0 1 1 .307.442zm.659.594a.33.33 0 0 1-.33.33.361.361 0 0 1-.087-.015.328.328 0 1 1 .417-.315zm-.952-1.579a.325.325 0 0 1-.187-.058.332.332 0 0 1-.142-.267v-.004a.329.329 0 1 1 .329.33zm.481-2.423a.335.335 0 0 1 .33.33.329.329 0 0 1-.595.192.328.328 0 0 1 .265-.522zm-.973 1.09v-.019a.317.317 0 1 1-.002.034zm-.968-.15a.329.329 0 0 1 .654.051l-.003.016-.002.018a.328.328 0 0 1-.654-.034.487.487 0 0 1 .005-.052zm-.6-.293a.327.327 0 0 1 .322.29l.003.016.001.023a.328.328 0 0 1-.633.122.335.335 0 0 1-.024-.122.329.329 0 0 1 .33-.329zm-.854.499a.33.33 0 0 1 0 .659.331.331 0 0 1-.328-.329.33.33 0 0 1 .328-.33zm-.4 1.578a.329.329 0 0 1 .062-.651l.016.001a.329.329 0 0 1-.016.657.294.294 0 0 1-.062-.007zm.394.93h-.01a.331.331 0 1 1 .01 0zm.53.896h-.01a.327.327 0 0 1-.32-.327.335.335 0 0 1 .33-.33.329.329 0 1 1 0 .657zm.505.82l-.013.002-.031.003a.343.343 0 1 1 .044-.005zm.224.2a.582.582 0 0 0-.194-1.101.582.582 0 0 0 .058-.246.595.595 0 0 0-.593-.594c-.017 0-.03.011-.045.013a.573.573 0 0 0 .105-.316.57.57 0 0 1-.33-.924.56.56 0 0 1 .336-.913.935.935 0 0 1 1.189.094.58.58 0 0 0 .444-.216.594.594 0 0 0 .304.285.602.602 0 0 0-.188.299 1.271 1.271 0 0 0-.99.218 1.06 1.06 0 0 0-.34.846 7.877 7.877 0 0 0 1.59 3.293.579.579 0 0 0-.337.012l-.37.155a34.543 34.543 0 0 1-.638-.905zm.833 1.117l.123-.056.127-.057a.572.572 0 0 1 .544.184 1.062 1.062 0 0 1 .2.266l.037.068.077.002a.477.477 0 0 1 .226.056l.15.084.043-.167a.443.443 0 0 1 .294-.305l.083-.038-.005-.09c0-.02-.004-.038-.005-.055a.235.235 0 0 1-.004-.032 1.195 1.195 0 0 1 .247-.772.573.573 0 0 1 .275-.184.89.89 0 0 1 .91.545 1.002 1.002 0 0 1 .046.09l.038.077.086-.003a.508.508 0 0 1 .497.225l.144.227.091-.253c.08-.222.237-.324.543-.355h.003l.013-.002h.006l.096-.012.017-.095a1.532 1.532 0 0 1 .313-.69.782.782 0 0 1 1.333.026 1.535 1.535 0 0 1 .292.664l.017.085.086.019.006.001.025.007a.684.684 0 0 1 .56.358l.094.213.134-.19a.42.42 0 0 1 .441-.175l.093.011.04-.084a1.72 1.72 0 0 1 .082-.145.854.854 0 0 1 .873-.484.594.594 0 0 1 .29.203 1.153 1.153 0 0 1 .235.735c0 .011-.004.03-.005.048a.461.461 0 0 0-.007.058l-.006.084.074.04a.591.591 0 0 1 .3.302l.078.206.145-.167a.414.414 0 0 1 .327-.14l.077-.001.036-.068a1.08 1.08 0 0 1 .142-.205.611.611 0 0 1 .595-.247l.137.06c.001.001.069.032.132.059l-.016.065-.254.99a30.183 30.183 0 0 0-4.832-.496 1.041 1.041 0 0 0-1.692.004 29.854 29.854 0 0 0-4.694.486l-.115.024zm.13 1.872a.366.366 0 1 1 .128.502.368.368 0 0 1-.128-.502zm-.151 2.119a.374.374 0 0 1 .279-.454 27.67 27.67 0 0 1 2.591-.365 13.377 13.377 0 0 0-2.756 1.004.357.357 0 0 1-.114-.185zm-1.312 36.148a9.99 9.99 0 0 1-1.342-.885 26.34 26.34 0 0 1-1.197-1.098l.434-.513.94-1.113a.693.693 0 0 0 .43.13.714.714 0 0 0 .512-.257.824.824 0 0 0 .024-1.015l.93-1.102.215-.253c.194.163.622.52.876.723.269.215.855.576 1.104.728zm-1.443-4.968a2.527 2.527 0 0 1 .979.315.585.585 0 0 1 .04.747.438.438 0 0 1-.322.162.447.447 0 0 1-.335-.14 3.39 3.39 0 0 1-.362-1.084zm6.172 5.934a13.27 13.27 0 0 1-4.053-1.546l2.239-3.562a9.643 9.643 0 0 0 1.814.728zm0-5.111v.457a9.357 9.357 0 0 1-1.56-.621h1.56zm4.713 5.966a11.225 11.225 0 0 1-4.448 0v-5.798a7.977 7.977 0 0 0 4.448 0zm.099-6.095a7.889 7.889 0 0 1-4.646 0l-.136-.035h4.918zm-6.397-.232l.148-.237-.115-.07c-.004-.001-.18-.106-.403-.246h2.74v-.198h-3.05a6.72 6.72 0 0 1-.749-.553h3.8v-.197h-4.038l-.46-.385-.102-.086-.294.348a12.183 12.183 0 0 1-.427-.43h5.32v-.198h-3.65c.204-.097.692-.323 1.29-.552h6.722l-.343.21.833.22-.048.122h-3.814v.198h3.737l-.217.553h-3.52v.197h6.954c-.22.195-.446.38-.677.553h-6.277v.198h6.005a9.95 9.95 0 0 1-.875.553zm-4.186-23.266q.2-.284.41-.553h1.539v-.198h-1.382q.231-.285.474-.553h.908v-.198h-.725q.273-.287.558-.552h6.24l-.468.117-.673.435h-3.941v.198h3.637l-.853.553h-2.784v.198h2.48l-.853.553h-1.627v.197h1.322l-.852.553h-3.902c.117-.188.234-.373.357-.553h2.084v-.197zm2.949-3.002a10.312 10.312 0 0 1 .872-.553h1.933v-.198h-1.567a9.489 9.489 0 0 1 1.32-.553h.247v-.078a8.692 8.692 0 0 1 4.568-.12h-3.578v.198h4.268a9.473 9.473 0 0 1 1.32.553h-5.588v.198h5.955a10.217 10.217 0 0 1 .872.553h-1.67v.197h1.941q.348.261.678.553h-2.62v.198h2.838q.287.265.559.552h-3.396v.198h3.58q.242.268.473.553h-7.562l.006-.004.385-.55h2.128v-.197h-1.99l.386-.552h1.604v-.198h-1.466l.135-.191-.767.191h-6.813q.331-.292.678-.553h8.233v-.197zm14.6 4.7c.093.181.185.366.272.554h-1.149v.197h1.24c.083.182.162.366.238.553h-1.478v.197h1.558c.071.182.14.367.207.553h-5.271c.002-.043.004-.083.004-.123a2.13 2.13 0 0 0 .346-.43h2.167v-.197h-2.054a2.155 2.155 0 0 0 .126-.297l.041-.133-.313.012.072-.08.084-.055h2.044v-.197h-1.745l.405-.268-.722-.286h2.062v-.197h-2.562l-.33-.13-.233.416-.218-.143.087-.155.542-.25.163-.292h4c.107.182.211.366.312.554h-.772v.197zm1.892 9.007c-.008.185-.02.37-.033.552h-1.779v.198h1.763c-.016.185-.035.37-.056.553h-1.707v.197h1.683c-.023.187-.05.37-.078.554h-3.878a.603.603 0 0 0 .004-.05 2.297 2.297 0 0 0-.023-.504h1.302v-.197h-1.337a3.461 3.461 0 0 0-.173-.553h1.51v-.198h-1.594c-.077-.17-.17-.35-.283-.552h1.877v-.198h-1.991a21.437 21.437 0 0 0-.237-.395c-.001-.005-.053-.089-.095-.158h5.144c0 .185-.003.37-.01.553h-1.82v.198zm-1.018 5.253q-.1.28-.208.553h-.025v.064q-.297.744-.659 1.438h-1.878c.027-.199.061-.384.1-.554h1.447v-.197h-1.397a2.808 2.808 0 0 1 .209-.544l.005-.01h1.183v-.197h-3.563a8.05 8.05 0 0 0-.073-.553h3.636v-.197h-3.674c-.028-.134-.064-.33-.12-.553h5.265q-.085.278-.179.553h-.302v.197zm-7.35 4.64l.552-.34-.454-.47c.087-.028.178-.056.28-.083a5.61 5.61 0 0 1 2.261-.17l.109.02.009-.11a2.73 2.73 0 0 1 .104-.557 2.787 2.787 0 0 1 .199-.498l.122-.22-.238.077a3.49 3.49 0 0 1-2.847-.278l-.692 1.061a2.078 2.078 0 0 1-.174-.225 3.292 3.292 0 0 1-.357-.729 5.966 5.966 0 0 1-.205-.738 8.707 8.707 0 0 1-.128-.742 12.362 12.362 0 0 1-.106-1.49c-.006-.347.001-.617.006-.746l.002-.13a2.812 2.812 0 0 0-.253-.67 2.686 2.686 0 0 0-.614-.779 2.24 2.24 0 0 0-.47-.318 10.538 10.538 0 0 1-.78-.441 13.945 13.945 0 0 1-1.068-.733 3.369 3.369 0 0 0 1.052-.608 2.7 2.7 0 0 0 .753-1.096c.107.08.284.208.506.354a6.402 6.402 0 0 0 1.534.762 2.517 2.517 0 0 0 .359.078l.113.016a2.151 2.151 0 0 1 .37.6c.053.124.107.261.158.392.04.104.078.216.115.346a6.05 6.05 0 0 1 .156.74l.01.073.007.046.04.025a5.497 5.497 0 0 1 .804.66c.063.06.127.13.192.204.082.093.154.193.231.285a4.227 4.227 0 0 1 .618 1.71c.057.316.085.577.1.74.008.104.01.164.01.164l.004.108.106-.012a3.512 3.512 0 0 1 1.51.305l.058.027.05-.042a3.029 3.029 0 0 1 .54-.298 3.688 3.688 0 0 0-.149.466 6.35 6.35 0 0 0-.136.764c-.028.235-.05.49-.061.758a14.154 14.154 0 0 0 .015 1.528 9.413 9.413 0 0 0-2.963.634c-.433.153-.797.3-1.015.39l.102-.26.153-.39zm-9.133-.443l.63-.715-.72-.238a7.3 7.3 0 0 1 .584-.25 4.588 4.588 0 0 1 2.099-.341l.18.02-.058-.152a2.369 2.369 0 0 0-.223-.423 3.801 3.801 0 0 0-.702-.772 7.49 7.49 0 0 0-1.08-.76 11.007 11.007 0 0 0-1.173-.599 1.722 1.722 0 0 1 1.125-.381h.044l.032-.03c.11-.11.23-.217.365-.33a5.953 5.953 0 0 1 1.137-.74 8.131 8.131 0 0 1 2.344-.74 9.142 9.142 0 0 1 1.699-.127c.024.02.065.055.113.102a2.188 2.188 0 0 1 .52.715.865.865 0 0 1 .017.676.91.91 0 0 1-.116.199 2.041 2.041 0 0 1-.617.503 7.7 7.7 0 0 1-2.177.724l.082.157a2.875 2.875 0 0 1 .245.726 4.048 4.048 0 0 1 .075.732 3.799 3.799 0 0 1-.013.406l-.014.117.748-.04a2.03 2.03 0 0 0-.215.197 2.712 2.712 0 0 0-.51.78 1.542 1.542 0 0 0-.03.073 10.782 10.782 0 0 0-2.185.625c-.564.217-1.036.431-1.27.542l.072-.723zm-.94-7.732l-.645.395-.184-.25.894-.854-.985.197-.088-.194a1.773 1.773 0 0 1 .202-.179 1.549 1.549 0 0 1 .147-.099 1.97 1.97 0 0 1 .386-.178 1.895 1.895 0 0 1 .383-.083 1.86 1.86 0 0 1 .187-.013 1.398 1.398 0 0 0 .165-.021l.517-.08.018-.454.017-.339.045.01.17.574.104-.052c.07-.034.14-.071.212-.112a6.764 6.764 0 0 0 .624-.42c.149-.109.303-.222.476-.332a4.7 4.7 0 0 1 .344-.208 2.636 2.636 0 0 1 .33-.15 3.692 3.692 0 0 1 1.849-.163 1.837 1.837 0 0 1-.118.418 2.882 2.882 0 0 1-.428.708 4.055 4.055 0 0 1-.74.733 4.338 4.338 0 0 1-1.46.733l-.039.013a5.878 5.878 0 0 0-.757.268 4.568 4.568 0 0 0-.438.215 4.246 4.246 0 0 0-.336.21l-.051.04-.028.02a3.333 3.333 0 0 0-.28.23 2.436 2.436 0 0 0-.43.503h-.096l-.23-.271.4-.681zm.343-1.461a.565.565 0 0 1-.05.006 1.63 1.63 0 0 0-.134.007l-.463-.981-.178.083.435.925a1.959 1.959 0 0 0-.23.054l-.65-.6-.134.147.573.528a2.158 2.158 0 0 0-.252.126h-.209l-1.067-.925.018-.26.334.183.043-.433.413.159.088-.463.38.144.072-.391.376.222.069-.37v-.002l.27.179.133-.31.267.26.26-.32.16.302-.082 1.66-.245.04-.056-1.026-.198.012zm-.027-4.1l-.083-.103-.385.55a35.249 35.249 0 0 1-.481-1.241 10.359 10.359 0 0 1-.188-.56 1.881 1.881 0 0 0 .893-.063 1.26 1.26 0 0 0 .69-.565 6.199 6.199 0 0 0 .597.549 6.884 6.884 0 0 0 1.158.76 5.886 5.886 0 0 0 1.149.455 3.169 3.169 0 0 0-.196.129 2.736 2.736 0 0 0-.72.779 3.392 3.392 0 0 0-.351.772 5.033 5.033 0 0 0-.126.494 9.071 9.071 0 0 1-.665-.538 8.185 8.185 0 0 1-.726-.742 25.41 25.41 0 0 1-.566-.677zm.277.643h-.64l.293-.418c.109.135.228.278.347.418zm-2.402-2.542a.505.505 0 0 0-.007-.047 2.998 2.998 0 0 0 .594.337h-.64a.571.571 0 0 0 .053-.29zm.553.058a2.631 2.631 0 0 1-.707-.49 1.724 1.724 0 0 1-.276-.352.55.55 0 0 1-.087-.32.457.457 0 0 1 .17-.31.356.356 0 0 1 .201-.094l.101.01.009-.1a1.022 1.022 0 0 1 .053-.23.484.484 0 0 1 .173-.25.36.36 0 0 1 .348-.042l.144.073v-.162c0-.06.016-.242.105-.305h.323c.065.02.12.042.12.042l.112-.158-.053-.054a2.853 2.853 0 0 0-.608-.48.785.785 0 0 1 .075-.144 1.202 1.202 0 0 1 .611-.433c.04.093.11.251.192.42a3.009 3.009 0 0 0 .42.702l.057.056 6.407-4.153 1.475-.369-.848 1.22c-1.212.734-6.49 3.922-6.49 3.922l.102.14a3.692 3.692 0 0 0 .752.751 1.327 1.327 0 0 1-.757.522 1.405 1.405 0 0 0-.528-.96l-.121-.08-.03.143c-.003.02-.084.417-.13.708a1.978 1.978 0 0 1-.606-.553l-.176.084c.002.006.145.5.225.792a1.343 1.343 0 0 1-.709-.471l-.183.065c.004.028.07.54.134.86zm-.865.261a.382.382 0 1 1 .114-.303.384.384 0 0 1-.114.303zm2.12-3.584h.949l-.688.447a3.163 3.163 0 0 1-.26-.447zm8.9-1.759l.92.65-.222.42.631.268.186-.406-.115-.58.199-.33 1.105-.218.428.98-.202.362-.542.25-.21.373.55.362.252-.452 1.037.41-.487.322-.222.243-.836.029.006.197 1.137-.04a2.286 2.286 0 0 1-.137.27 1.965 1.965 0 0 1-.371.465 1.498 1.498 0 0 1-.358.243l.084.179a1.558 1.558 0 0 0 .232-.137l-.003.044a4.34 4.34 0 0 1-.126.733 7.28 7.28 0 0 1-.238.741c-.049.127-.097.243-.134.335-.037.09-.065.16-.084.213a3.517 3.517 0 0 0-.065.211 6.534 6.534 0 0 0-.146.763c-.011.08-.02.147-.026.202l-.313-.116-.016.124a5.147 5.147 0 0 1-.095.533c-.03.135-.064.257-.095.376-.037.134-.07.26-.093.377-.01.055-.019.102-.025.146a1.794 1.794 0 0 0 .054.648 2.449 2.449 0 0 0 .14.396 1.767 1.767 0 0 1-.951-.186l-.084-.041-.047.08a1.342 1.342 0 0 0-.14.463 4.59 4.59 0 0 0-.034.723 2.817 2.817 0 0 1-.212-.054 6.135 6.135 0 0 1-1.48-.738c-.355-.231-.6-.424-.603-.426l-.113-.09-.042.138a2.68 2.68 0 0 1-.172.416 2.439 2.439 0 0 1-.568.72 3.252 3.252 0 0 1-1.16.631c-.116.036-.236.07-.355.098a4.787 4.787 0 0 1-.644.102 4.225 4.225 0 0 0 .684-.695 3.744 3.744 0 0 0 .464-.772 1.895 1.895 0 0 0 .142-.658 4.475 4.475 0 0 0-2.135.16 3.203 3.203 0 0 0-.355.162 5.107 5.107 0 0 0-.421.256l-.145.1a6.17 6.17 0 0 1 .093-.792l.02-.113a4.52 4.52 0 0 1 .147-.625 3.304 3.304 0 0 1 .33-.728 2.513 2.513 0 0 1 .668-.721 2.709 2.709 0 0 1 .391-.237 4.362 4.362 0 0 1 1.921-.372 3.796 3.796 0 0 0 .985-.127 3.37 3.37 0 0 0 1.418-.775 2.194 2.194 0 0 0 .246-.262l.208-.28-.325.13a3.508 3.508 0 0 1-1.015.24 3.152 3.152 0 0 1-.555 0c-.1-.008-.189-.02-.265-.033a2.053 2.053 0 0 0 .42-.532 2.324 2.324 0 0 0 1.595-.412.587.587 0 0 0 .176-.426.998.998 0 0 0-.71-.845.515.515 0 0 0-.127-.017.869.869 0 0 0-.153.015 1.664 1.664 0 0 0-.877.601l-.08-.34-.012-.049-.046-.018a.687.687 0 0 1-.234-.164 1.237 1.237 0 0 1-.276-.7l1.288-.338.111-.487 1.023-.056.218-.937zm1.308.909l-.079.171-.255-.108.201-.382-.467-.332h.518l-.035.057zm5.449 5.667a.923.923 0 0 1 .18.365.84.84 0 0 1-.078.674 1.048 1.048 0 0 1-.137.185 1.8 1.8 0 0 0-.036-.161 2.132 2.132 0 0 0-.425-.789 2.206 2.206 0 0 0-.326-.32c-.262-.195-.397-.315-.488-.393l-.055-.05a.768.768 0 0 0-.346-.107 1.573 1.573 0 0 0-.808.096.902.902 0 0 0-.211.154 2.036 2.036 0 0 0-.461.645 2.451 2.451 0 0 0-.176.782l-.003.038a2.405 2.405 0 0 0 .074.743 3.936 3.936 0 0 0 .284.77l.144.293.079-.216a.804.804 0 0 1 .032-.078 1.018 1.018 0 0 1 1.491-.42 1.22 1.22 0 0 0-.906.305 1.2 1.2 0 0 0-.388.687 4.097 4.097 0 0 0-.018.223l.16.266c.092.151.181.3.268.447a7.279 7.279 0 0 1 .383.74 3.343 3.343 0 0 1 .236.729 2.213 2.213 0 0 1 .038.572 1.785 1.785 0 0 1-.015.149 2.24 2.24 0 0 1-.218.718 1.969 1.969 0 0 1-1.137.99 2 2 0 0 1-.567.101 2.667 2.667 0 0 0-.355-.63 1.341 1.341 0 0 0 .727-.04 1.323 1.323 0 0 0 .502-.304 1.441 1.441 0 0 0 .35-.531l.007-.018v-.019a1.623 1.623 0 0 0-.024-.272 1.588 1.588 0 0 0-2.347-1.1 1.402 1.402 0 0 1 1.29-.68 1.414 1.414 0 0 1 .54.148l.294.15-.163-.286a20.841 20.841 0 0 0-.305-.517s-.3-.495-.438-.746a6.677 6.677 0 0 1-.355-.74 3.893 3.893 0 0 1-.218-.733 2.879 2.879 0 0 1-.048-.726 3.43 3.43 0 0 1 .122-.73 2.6 2.6 0 0 1 .328-.722 2.329 2.329 0 0 1 .746-.722 2.148 2.148 0 0 1 .452-.201 2.63 2.63 0 0 1 .606-.133 19.037 19.037 0 0 1 2.012.08 1.934 1.934 0 0 0 1.05-.235 1.52 1.52 0 0 1 .021.386 1.21 1.21 0 0 1-.296.705.901.901 0 0 1-.6.36.708.708 0 0 1-.503-.204l-.069-.07-.148.132c.004.002.214.22.252.26zm-.619.437a1.963 1.963 0 0 1 .318.553h-2.859a2.195 2.195 0 0 1 .126-.553zm-2.323-.197a2.044 2.044 0 0 1 .352-.447 1.134 1.134 0 0 1 .145-.107h.978l.027.024c.092.081.231.203.5.403a1.797 1.797 0 0 1 .143.127zm-.129 1.698h.767a1.215 1.215 0 0 0-.578.505 4.024 4.024 0 0 1-.189-.505zm1.892.483a1.059 1.059 0 0 1 .207.061l.023.009h-.82a1.016 1.016 0 0 1 .59-.07zm-2.602-2.735a2.812 2.812 0 0 0-.238.554h-.257c.026-.166.061-.366.107-.554zm-.332-.197a2.596 2.596 0 0 1 .104-.276c.031-.079.07-.173.11-.277h.756a2.544 2.544 0 0 0-.515.553zm.04.948a3.599 3.599 0 0 0-.09.553h-.556a4.4 4.4 0 0 0 .056-.308l.32.118.013-.128c0-.002.008-.095.026-.235zm-.103.75a3.123 3.123 0 0 0 .036.553h-.765l.062-.246c.025-.093.053-.197.08-.306zm.072.751a4.031 4.031 0 0 0 .162.553h-.98a1.51 1.51 0 0 1-.031-.5.352.352 0 0 1 .008-.053zm-.627 1.084a1.977 1.977 0 0 1-.138-.333h1.006c.072.176.158.358.26.552h-2.36a1.228 1.228 0 0 1 .057-.196 1.619 1.619 0 0 0 1.126.117l.101-.043zm1.234.417c.093.166.232.402.323.553h-2.837l-.004-.004a3.973 3.973 0 0 1 .023-.549zm.443.75l.13.219a1.653 1.653 0 0 0-.343-.062 1.576 1.576 0 0 0-1.156.396h-1.06a2.328 2.328 0 0 0-.341-.552zm-1.558.751a1.557 1.557 0 0 0-.286.552h-.297a4.813 4.813 0 0 0-.1-.291 11.757 11.757 0 0 0-.104-.26zm.919.277a1.388 1.388 0 0 1 .742.276h-1.668a1.39 1.39 0 0 1 .926-.276zm-1.262.473l-.041.144.153-.144h2.104a1.374 1.374 0 0 1 .294.554h-2.58a6.347 6.347 0 0 0-.116-.554zm2.549.751a1.323 1.323 0 0 1 .008.136 1.246 1.246 0 0 1-.27.417h-1.568a5.865 5.865 0 0 0-.656-.553zm-.517.75a1.047 1.047 0 0 1-.197.089 1.188 1.188 0 0 1-.905-.063l-.022-.025zm4.235-8.992c-.003.002-.217.272-.954.272a19.708 19.708 0 0 0-2.086-.083 2.703 2.703 0 0 0-.658.142 2.23 2.23 0 0 0-.467.208h-.972c.069-.192.127-.375.175-.553h4.971zm-4.259 14.246a2.89 2.89 0 0 0-.066.364 6.016 6.016 0 0 0-2.239.19h-4.797a2.473 2.473 0 0 1 .377-.554h3.188a1.996 1.996 0 0 0 .251.3l.087.084.065-.1.185-.284zm-2.82-.197l.345-.53a3.776 3.776 0 0 0 2.63.262 3.3 3.3 0 0 0-.098.268zm-3.697 0a1.609 1.609 0 0 1 .31-.2l-.05-.188-.895.048a4 4 0 0 0 .006-.213h3.224a3.67 3.67 0 0 0 .258.553zm-.633-.75a4.15 4.15 0 0 0-.055-.554h3.062q.067.296.152.554zm-.094-.751a3.07 3.07 0 0 0-.176-.554h3.141c.027.192.058.377.093.554zm.332-.75a6.512 6.512 0 0 0 1.416-.554h1.137c.015.189.032.373.054.553zm1.726-.751a1.934 1.934 0 0 0 .391-.371 1.098 1.098 0 0 0 .114-.182h.284c.005.188.012.373.024.553zm.786-.751h-.208a1.037 1.037 0 0 0-.016-.553h.228c-.004.13-.007.321-.004.553zm.01-.75h-.307a2.204 2.204 0 0 0-.372-.553h.475a2.571 2.571 0 0 1 .205.537zm-.873-.751c-.073-.067-.122-.105-.124-.108l-.025-.02-.03-.001a9.03 9.03 0 0 0-1.769.129h-2.81c.077-.069.151-.138.223-.21l.082-.08-.364-.263h4.92a2.404 2.404 0 0 1 .456.553zm-6.785-.388a6.4 6.4 0 0 1 .21-.169l.203.43.178-.084-.217-.464c.06-.041.123-.08.188-.12l.26.242.135-.145-.212-.197c.079-.04.162-.08.247-.118l1.034.746q-.157.148-.33.288a5.622 5.622 0 0 1-1.211.737 5.195 5.195 0 0 1-.927.32l-.028-.91a2.293 2.293 0 0 1 .281-.371l.009.169.198-.012zm1.79.586h2.132a7.809 7.809 0 0 0-1.473.553h-1.504a5.729 5.729 0 0 0 .846-.553zm-.095-.948l-.489-.355a5.749 5.749 0 0 1 .57-.19l.026-.009h3.858c.268.165.527.313.769.435a2.238 2.238 0 0 1 .203.119zm.664-.751a4.641 4.641 0 0 0 .788-.433h.005a4.628 4.628 0 0 0 .957-.12h.455c.194.144.484.353.787.553zm4.402-10.31l-.03.135-1.324.347.002.071h-3.644l.914-.553zm-3.755-.197l.915-.554h4.026l-.073.315-1.025.056-.042.182zm2.418.948a1.478 1.478 0 0 0 .192.553h-1.03a.907.907 0 0 0-.71 0h-3.353l.915-.553zm2.493 1.501a.417.417 0 0 1-.11.187c-.158.16-.549.352-1.51.352h-.058l-.007.014h-.589c.126-.055.514-.205.518-.206l.049-.019.011-.05a.145.145 0 0 0-.028-.123c-.057-.072-.17-.104-.358-.104a5.444 5.444 0 0 0-.574.048 6.746 6.746 0 0 1-.708.056.693.693 0 0 1-.292-.033.454.454 0 0 1-.167-.122h2.042l.03.126.084-.126zm-1.525-.198a1.516 1.516 0 0 1 .78-.555.658.658 0 0 1 .116-.012.362.362 0 0 1 .08.01.845.845 0 0 1 .546.557zm-2.564.135a.659.659 0 0 0 .354.366.834.834 0 0 0 .371.05 6.848 6.848 0 0 0 .731-.058 5.454 5.454 0 0 1 .551-.048l.035.001c-.117.046-.25.099-.312.126-.032.013-.07.032-.115.052-.084.038-.187.086-.303.134a2.113 2.113 0 0 1-.731.2 1.165 1.165 0 0 1-.637-.19.764.764 0 0 1-.321-.667.708.708 0 0 1 .463-.654h.043a.65.65 0 0 0-.13.688zm.165-.135a.44.44 0 0 1-.014-.107.46.46 0 0 1 .344-.446h1.452a.893.893 0 0 0 .22.156l.094.397zm-.448-.553a.859.859 0 0 0-.286.553h-2.177a3.137 3.137 0 0 1-.584-.553zm-2.368.751h2.08a1.004 1.004 0 0 0 .21.553h-2.878a1.657 1.657 0 0 0 .588-.553zm2.51.75a1.366 1.366 0 0 0 .722.208 2.219 2.219 0 0 0 .788-.208h.916c-.163.25-.36.46-.482.448l-.023.105h-4.811a6.027 6.027 0 0 1-.594-.553zm2.497.75a3.535 3.535 0 0 0 .584 0h.535a3.221 3.221 0 0 1-1.122.554h-4.253a6.494 6.494 0 0 1-.878-.553zm-1.915.751a3.73 3.73 0 0 0-1.005.304 5.47 5.47 0 0 1-.92-.304zm3.723-5.451h-3.744l.915-.553h2.883l.006.296zm-9.031 4.057l.156.034-.04-.155a17.714 17.714 0 0 0-.15-.545 2.01 2.01 0 0 0 .511.347l.122.052.015-.132c.021-.18.078-.485.115-.672a1.445 1.445 0 0 1 .33.816l.003.045-.033.072a1.091 1.091 0 0 1-.645.589 1.747 1.747 0 0 1-.938.025l-.054-.015-.035-.11a6.605 6.605 0 0 1-.129-.708 2.069 2.069 0 0 0 .772.357zm2.51 5.147v.099l-.08.057a6.859 6.859 0 0 1-.585.397h-.135l-.119-.404-.189-.028.006-.12zm-1.092-.198l.027-.552h1.14a5.467 5.467 0 0 0-.066.552zm-1.01 5.072l.11-.018a5.138 5.138 0 0 0 1.063-.353h1.541a6.076 6.076 0 0 0-.8.553h-2.4c.092-.073.157-.12.157-.12l.033-.433h.284zm-.52-.042c-.054.04-.165.126-.306.247a7.113 7.113 0 0 0-.733.728h-.056l-.054-.505-.46.079 1.056-1.127.613-.19zm-.206.422h2.41c-.05.045-.097.09-.144.136a1.9 1.9 0 0 0-1.206.417h-1.63a6.563 6.563 0 0 1 .57-.553zm6.113 4.623l.06-.009.02-.057.02-.054h4.304l.493.509-.073.044h-6.503a9.277 9.277 0 0 1 1.679-.433zm7.779-3.123h1.405a3.638 3.638 0 0 0-.496.27 4.298 4.298 0 0 0-.91-.27zm-1.717 4.504h2.799q-.273.287-.559.553h-3.621l.183-.081a16.9 16.9 0 0 1 1.198-.472zm.592-.198a7.552 7.552 0 0 1 2.426-.429l.114.007-.01-.114v-.016h.335q-.231.284-.475.552zm2.517-.75c-.006-.141-.016-.329-.02-.553h.934c-.132.188-.268.373-.409.553zm-.022-.75c0-.19.004-.375.01-.554h1.42q-.173.282-.357.553zm.018-.751c.01-.193.026-.379.045-.553h1.798c-.1.187-.205.371-.313.553zm-2.233-3.753a7.078 7.078 0 0 0-.053-.163 2.162 2.162 0 0 0 .558-.107 2.228 2.228 0 0 0 .558-.283h4.468c-.048.186-.097.37-.152.553zm1.305-.75a2.214 2.214 0 0 0 .42-.554h3.983q-.06.279-.127.554zm.516-.751a2.411 2.411 0 0 0 .16-.553h3.87c-.032.186-.066.37-.103.553zm-.882-3.753v-.001a.995.995 0 0 1 .3-.55h4.86c.007.182.01.366.01.55zm1.631-.75l-.12-.16a1.212 1.212 0 0 0-.504-.393h4.113c.014.183.024.368.033.553zm-2.386-.75a2.209 2.209 0 0 1-.055-.553h2.932a1.464 1.464 0 0 1 .034.242l.01.177.145-.1a1.166 1.166 0 0 0 .299-.32h2.44q.031.275.055.553zm3.465-.751a1.045 1.045 0 0 0 .055-.553h2.184q.043.274.078.553zm.004-.75a1.56 1.56 0 0 0-.074-.177.774.774 0 0 0 .204.017 1.013 1.013 0 0 0 .71-.394h1.262c.037.183.07.367.102.554zm.988-.751a1.4 1.4 0 0 0 .214-.553h.735q.067.274.125.553zm.23-.75a1.1 1.1 0 0 0-.087-.53l-.012-.024h.619q.079.274.15.553zm-5.167-.751a4.429 4.429 0 0 0 .094-.553h5.355q.094.273.18.553zm.187-3.753l.009-.014-.235-.539h3.64q.184.27.357.553zm-.312-.75l-.208-.482-1.347.265-.131.216h-.916l-.635-.45.01.45h-2.553l.915-.552h8.046q.21.27.41.552zm-9.825.947l-.853.553h-1.35a14.54 14.54 0 0 1-.234-.522l-.085.027a1.465 1.465 0 0 0-.768.495h-.737q.15-.28.31-.553zm-3.406.75a.649.649 0 0 0-.045.142l-.013.08.077.028a1.486 1.486 0 0 1 .405.27.4.4 0 0 0-.193.034h-1.23c.089-.187.179-.372.273-.553zm.04.752a.696.696 0 0 0-.052.177.57.57 0 0 0-.414.093.634.634 0 0 0-.225.283h-.677c.076-.188.156-.371.238-.553zm-.756.75a.99.99 0 0 0-.014.067.629.629 0 0 0-.252.131.662.662 0 0 0-.225.355h-.408c.066-.186.135-.371.208-.553zm-.506.751a.816.816 0 0 0 .112.33c.03.051.065.1.102.151a.571.571 0 0 0-.373.072h-.48q.084-.28.178-.553zm-.368.75a.578.578 0 0 0-.09.356.557.557 0 0 0 .053.197h-.444q.072-.279.15-.553zm.114.75a.583.583 0 0 0 .429.143.574.574 0 0 0 .335-.142h.97c.035.132.094.318.177.553h-2.68c.039-.186.081-.37.126-.553zm1.983.751c.06.167.13.352.209.554h-3.102c.03-.187.065-.37.1-.554zm.286.751c.1.255.185.464.222.553h-3.51q.034-.279.077-.553zm.304.75l.006.017.011-.016h.951c.185.21.354.388.526.552h-5.165q.024-.278.055-.552zm1.708.751c.207.183.43.362.69.553h-1.223l-.23-.432-.312.382-.316-.31-.153.358-.324-.214-.04.216h-.309l-.097-.067-.009.067h-2.431v.198h2.394l-.035.189-.379-.144-.089.462-.433-.167-.02.212h-.354l-.008-.004v.004h-1.076v.198h1.062l-.033.462.104.09h-1.133v.199h1.361l.64.552h-2.638a18.736 18.736 0 0 1-.054-1.407q0-.707.05-1.397zm-2.525 3.002l.001.001a1.49 1.49 0 0 0-.183.183l-.037.047.146.322h-2.723a19.9 19.9 0 0 1-.055-.553zm.285.75l-.356.34.157.214h-2.78a20.368 20.368 0 0 1-.077-.554zm-.054.751l.097.13.207-.13h.158l-.176.301.212.252h-3.287q-.056-.275-.103-.553zm.665.75l.092.11.032.037.012.407h-.261l.04-.516-.942.289-.212.227h-2.05a20.557 20.557 0 0 1-.126-.554zm-1.423.751l-.518.553h-1.146a16.004 16.004 0 0 1-.152-.553zm-.703.751l-.395.42.833-.14.03.273h-1.193a17.449 17.449 0 0 1-.178-.553zm.488.75l.04.376s.197-.263.286-.376h1.611l-.036.042.13.052a9.997 9.997 0 0 1 .958.46h-3.925a17.628 17.628 0 0 1-.207-.554zm3.337.75a7.817 7.817 0 0 1 .816.554h-4.77q-.125-.273-.24-.554zm1.055.751a3.855 3.855 0 0 1 .53.554h-5.177a17.534 17.534 0 0 1-.271-.554zm.666.751c.04.063.076.127.108.19a5.087 5.087 0 0 0-2.028.363h-2.976a15.73 15.73 0 0 1-.312-.553zm-2.395.75a6.98 6.98 0 0 0-.355.174l-.206.108.819.271h-2.283a13.06 13.06 0 0 1-.357-.553zm.168.75l-.488.554h-1.16q-.211-.27-.41-.553zm.643.752l-.053.552h-1.607q-.244-.268-.475-.552zm9.597 3a9.234 9.234 0 0 1-1.56.625v-.624zm-1.56 5.281v-3.425h6.604a13.972 13.972 0 0 1-6.603 3.425zm9.172-6.349a17.57 17.57 0 0 1-2.283 2.662h-6.888v-.695a11.517 11.517 0 0 0 6.39-5.106 17.817 17.817 0 0 0 2.587-9.405c0-8.198-5.144-14.866-11.466-14.866-6.322 0-11.464 6.668-11.464 14.866a16.677 16.677 0 0 0 4.696 11.994l-.848 1.004a4.483 4.483 0 0 0-1.191-.337l-.183-.026.033.18a5.116 5.116 0 0 0 .393 1.305l-.87 1.028a20.909 20.909 0 0 1-6.004-15.148c0-10.557 6.926-19.145 15.438-19.145 8.513 0 15.437 8.588 15.437 19.145a22 22 0 0 1-3.776 12.544z" transform="translate(-158 -95.766)"/><path class="cls-2" d="M164.785 145.716l-.22.155-1.098-1.57.22-.155.459.654 1.739-1.217.183.262-1.74 1.217zM164.44 141l-1.572 1.365.003.006 2.05-.375.145.298-1.888 1.592-.141-.293 1.588-1.287-.003-.007-2.026.382-.15-.31 1.562-1.342-.003-.006-2.003.428-.138-.287 2.431-.463zm-3.281-2.118l.255-.08.395 1.274.728-.225-.368-1.187.255-.08.369 1.188.791-.245-.398-1.284.256-.08.493 1.589-2.286.71zm-.479-2.336l.263-.049.25 1.31.747-.143-.233-1.221.263-.05.235 1.22.812-.155-.254-1.32.265-.05.312 1.632-2.35.451zm-.162-1.55a1.19 1.19 0 0 1 .218-.87 1.128 1.128 0 0 1 .833-.362 1.962 1.962 0 0 1 .538.026.993.993 0 0 1 .407.178.895.895 0 0 1 .27.34 1.417 1.417 0 0 1 .12.508l.063.818-2.387.18zm2.117-.186a1.224 1.224 0 0 0-.018-.133.7.7 0 0 0-.053-.168.768.768 0 0 0-.105-.172.596.596 0 0 0-.176-.146.915.915 0 0 0-.267-.096 1.395 1.395 0 0 0-.38-.017 1.72 1.72 0 0 0-.379.07.766.766 0 0 0-.278.159.6.6 0 0 0-.161.259.961.961 0 0 0-.034.376l.04.534 1.85-.139zm-2.14-3.342l.267.01-.047 1.334.76.027.046-1.243.267.01-.044 1.243.826.03.049-1.344.268.01-.06 1.66-2.392-.086zm.313-2.351l1.167.243-.919-1.43.085-.405.738 1.185 1.612-.735-.083.394-1.36.6.282.466.82.171-.066.31-2.341-.488zm.838-3.167l2.567-.117-.113.333-.766.018-.325.958.596.485-.104.308-1.968-1.652zm1.403.243l-1.187.018-.003.007.929.743zm-.646-2.141l2.134.253-1.441-1.596.2-.387 2.126 1.098-.138.268-1.77-.914-.002.007 1.427 1.576-.125.242-2.113-.25-.002.007 1.77.913-.139.268-2.127-1.098zm2.429-3.882l.213.16-.793 1.07.611.456.741-1 .214.16-.74.998.666.494.8-1.078.214.16-.99 1.333-1.922-1.425zm1.365-1.428a.78.78 0 0 1 .5-.252.576.576 0 0 1 .459.195.728.728 0 0 1 .196.343.512.512 0 0 1-.07.382l.005.005a.415.415 0 0 1 .168-.07.379.379 0 0 1 .152.007.507.507 0 0 1 .143.066 1.477 1.477 0 0 1 .136.1c.043.037.088.078.131.12a1.315 1.315 0 0 0 .136.114 1.003 1.003 0 0 0 .142.092.402.402 0 0 0 .152.048l-.255.247a.202.202 0 0 1-.102-.04 1.067 1.067 0 0 1-.111-.091 10.605 10.605 0 0 0-.122-.117 1.297 1.297 0 0 0-.138-.113 2.316 2.316 0 0 0-.14-.096.397.397 0 0 0-.142-.054.314.314 0 0 0-.146.013.412.412 0 0 0-.158.105l-.557.541.712.733-.23.223-1.667-1.717zm.806.733a.463.463 0 0 0 .08-.17.366.366 0 0 0-.004-.178.45.45 0 0 0-.117-.184.435.435 0 0 0-.278-.142.413.413 0 0 0-.312.144l-.566.55.583.6.475-.462a1.27 1.27 0 0 0 .14-.158zm2.42-3.028a1.193 1.193 0 0 1 .887-.132 1.126 1.126 0 0 1 .652.632 1.921 1.921 0 0 1 .18.508.981.981 0 0 1-.009.444.894.894 0 0 1-.21.378 1.43 1.43 0 0 1-.423.307l-.734.37-1.076-2.138zm.98 1.885a1.079 1.079 0 0 0 .116-.067.76.76 0 0 0 .135-.113.81.81 0 0 0 .118-.162.6.6 0 0 0 .068-.219.96.96 0 0 0-.013-.284 1.373 1.373 0 0 0-.13-.358 1.595 1.595 0 0 0-.21-.324.714.714 0 0 0-.252-.195.6.6 0 0 0-.301-.051.987.987 0 0 0-.36.11l-.479.243.835 1.659zm2.604-3.117l.064.26-1.296.319.182.74 1.209-.297.063.26-1.208.296.196.805 1.307-.32.063.259-1.614.396-.57-2.323zm2.117-.136a.792.792 0 0 1 .538.156.576.576 0 0 1 .2.454.72.72 0 0 1-.09.383.507.507 0 0 1-.311.231v.008a.43.43 0 0 1 .17.062.362.362 0 0 1 .106.11.502.502 0 0 1 .06.146 1.447 1.447 0 0 1 .033.166c.004.058.01.118.012.178.004.06.012.12.021.177a1.216 1.216 0 0 0 .042.165.43.43 0 0 0 .079.138l-.355.007a.198.198 0 0 1-.047-.1.848.848 0 0 1-.018-.141l-.01-.17a1.232 1.232 0 0 0-.025-.176 1.491 1.491 0 0 0-.037-.166.374.374 0 0 0-.066-.136.32.32 0 0 0-.116-.092.438.438 0 0 0-.188-.031l-.777.016.02 1.022-.316.008-.05-2.392zm.09 1.083a.476.476 0 0 0 .174-.07.357.357 0 0 0 .117-.133.496.496 0 0 0-.065-.505.414.414 0 0 0-.328-.107l-.79.017.016.832.664-.014a1.26 1.26 0 0 0 .211-.02zm4.203.111a.68.68 0 0 0-.342-.25.959.959 0 0 0-.193-.05.534.534 0 0 0-.185.004.354.354 0 0 0-.156.075.395.395 0 0 0-.111.168.247.247 0 0 0 0 .19.493.493 0 0 0 .123.167 1.486 1.486 0 0 0 .207.153c.078.05.16.102.24.155.083.054.16.111.236.171a.901.901 0 0 1 .188.2.59.59 0 0 1 .097.242.688.688 0 0 1-.234.577.702.702 0 0 1-.283.13.938.938 0 0 1-.325.012 1.47 1.47 0 0 1-.662-.257.952.952 0 0 1-.242-.252.712.712 0 0 1-.11-.32.83.83 0 0 1 .056-.38l.283.105a.52.52 0 0 0 .046.485.633.633 0 0 0 .174.175 1.034 1.034 0 0 0 .234.122 1.156 1.156 0 0 0 .209.056.652.652 0 0 0 .208.004.39.39 0 0 0 .178-.076.394.394 0 0 0 .124-.182.299.299 0 0 0 .008-.21.472.472 0 0 0-.12-.179 1.264 1.264 0 0 0-.203-.16l-.241-.155a3.33 3.33 0 0 1-.237-.167 1.028 1.028 0 0 1-.193-.189.495.495 0 0 1-.067-.506.62.62 0 0 1 .437-.404.895.895 0 0 1 .305-.022 1.28 1.28 0 0 1 .314.07 1.327 1.327 0 0 1 .306.16.782.782 0 0 1 .21.226.658.658 0 0 1 .095.286.856.856 0 0 1-.047.346l-.283-.105a.499.499 0 0 0-.044-.415zm1.138.431l.142-.23 1.627 1.008-.142.23-.678-.421-1.12 1.806-.27-.167 1.119-1.807zm2.841 1.676l-.847 2.425-.267-.229.269-.716-.768-.658-.671.372-.247-.212 2.263-1.21zm-.746 1.21l.423-1.106-.005-.004-1.034.583zm1.3-.363l.2-.176 1.268 1.433-.199.177-.53-.597-1.59 1.41-.212-.24 1.591-1.41zm2.778 3.181l-.224.147-.736-1.113-.634.42.686 1.037-.224.147-.684-1.037-.694.458.742 1.12-.223.148-.917-1.387 1.996-1.319zm.54 1.002l-1.214 1.97.003.007 1.754-.83.129.272-2.162 1.025-.15-.317 1.2-1.952-.003-.005-1.735.822-.13-.273 2.163-1.024zm.078 3.747l-.255.083-.303-.92.256-.084zm-.505 2.306a1.11 1.11 0 0 1 .017-1.29 1.198 1.198 0 0 1 .332-.3 1.338 1.338 0 0 1 .427-.168 1.688 1.688 0 0 1 .502-.032 1.215 1.215 0 0 1 .449.125 1.024 1.024 0 0 1 .351.29 1.112 1.112 0 0 1 .206.465 1.507 1.507 0 0 1 .032.368.93.93 0 0 1-.076.331.85.85 0 0 1-.194.275.972.972 0 0 1-.326.197l-.066-.312a.651.651 0 0 0 .213-.134.554.554 0 0 0 .126-.187.715.715 0 0 0 .05-.23.999.999 0 0 0-.021-.254.752.752 0 0 0-.162-.347.764.764 0 0 0-.278-.203 1.001 1.001 0 0 0-.348-.075 1.45 1.45 0 0 0-.375.031 1.147 1.147 0 0 0-.342.127.942.942 0 0 0-.267.217.748.748 0 0 0-.158.657.842.842 0 0 0 .128.312.718.718 0 0 0 .213.206.728.728 0 0 0 .273.094.848.848 0 0 0 .31-.02l-.157-.749.261-.055.217 1.027-1.235.259-.04-.196.274-.144a.79.79 0 0 1-.336-.285zm2.693 2.613l-.268.023-.116-1.328-.757.066.109 1.238-.27.024-.107-1.239-.822.072.117 1.339-.27.023-.144-1.656 2.384-.209zm.016 1.088l-1.97 1.21v.006l1.938.051-.007.3-2.391-.061.008-.348 1.952-1.201v-.007l-1.918-.05.006-.3 2.392.061zm-.351 4.078l-.266-.037.187-1.321-.755-.107-.174 1.23-.267-.037.175-1.23-.82-.117-.187 1.332-.266-.039.233-1.645 2.37.334zm-.436 1.83a.792.792 0 0 1-.297.474.584.584 0 0 1-.495.07.723.723 0 0 1-.344-.193.503.503 0 0 1-.137-.363l-.007-.002a.397.397 0 0 1-.108.147.351.351 0 0 1-.134.072.523.523 0 0 1-.156.018 1.451 1.451 0 0 1-.168-.014 3.862 3.862 0 0 1-.175-.035 1.37 1.37 0 0 0-.176-.03 1.054 1.054 0 0 0-.17-.004.387.387 0 0 0-.154.037l.092-.343a.19.19 0 0 1 .107-.018 1.057 1.057 0 0 1 .143.02l.164.037a1.111 1.111 0 0 0 .176.025 1.359 1.359 0 0 0 .17.01.373.373 0 0 0 .148-.026.313.313 0 0 0 .12-.087.416.416 0 0 0 .081-.172l.198-.752-.987-.26.08-.307 2.315.608zm-1.068-.211a.479.479 0 0 0 .018.187.364.364 0 0 0 .096.15.501.501 0 0 0 .506.076.415.415 0 0 0 .193-.286l.2-.764-.808-.213-.168.642a1.178 1.178 0 0 0-.037.208zm.241 2.632l-2.57-.029.132-.326.765.028.38-.94-.569-.517.122-.302 1.87 1.759zm-1.387-.32l1.185.047.003-.006-.883-.795zm.25 2.626l-2.545-.368.174-.307.756.13.5-.881-.494-.588.16-.284 1.621 1.993zm-1.333-.5l1.17.203.002-.004-.771-.905zm.296 2.089l-1.688-1.289-.77 1.006-.212-.162.963-1.26 1.9 1.451z" transform="translate(-158 -95.766)"/><path d="M220.462 132.078v20.381h-2.94v-20.381h-7.042v-2.673h16.995v2.673zm24.3 20.381h-3.06l-3.48-11.7h-.06l-3.33 11.7h-3.24a137.057 137.057 0 0 1-4.59-15.3h2.94c.93 4.23 2.1 8.49 3.36 12.39h.06l3.51-12.39h2.94l3.6 12.39h.06c1.23-3.96 2.46-8.25 3.36-12.39h2.73a149.842 149.842 0 0 1-4.8 15.3zm20.97-7.169h-10.5c0 3.24 1.17 5.278 4.8 5.278a17.934 17.934 0 0 0 4.95-.69l.33 2.13a20.699 20.699 0 0 1-5.76.81c-4.95 0-7.29-2.64-7.29-7.92 0-4.919 2.58-8.099 7.23-8.099 4.29 0 6.27 2.91 6.27 6.9 0 .33-.03 1.05-.03 1.59zm-6.42-6.36a4.15 4.15 0 0 0-4.08 4.35h7.71c.09-2.64-1.23-4.35-3.63-4.35zm23.55 6.36h-10.5c0 3.24 1.17 5.278 4.8 5.278a17.934 17.934 0 0 0 4.95-.69l.33 2.13a20.699 20.699 0 0 1-5.76.81c-4.95 0-7.29-2.64-7.29-7.92 0-4.919 2.58-8.099 7.23-8.099 4.29 0 6.27 2.91 6.27 6.9 0 .33-.03 1.05-.03 1.59zm-6.42-6.36a4.149 4.149 0 0 0-4.08 4.35h7.71c.09-2.64-1.23-4.35-3.63-4.35zm21.9 13.529l-.27-2.28a6.967 6.967 0 0 1-5.55 2.64c-4.17 0-6-3.33-6-7.44 0-4.59 2.37-8.43 7.74-8.43a16.324 16.324 0 0 1 3.42.36v-7.906h2.82v23.056zm-.66-12.6a8.766 8.766 0 0 0-3.48-.69c-3.12 0-4.68 2.19-4.68 5.94 0 2.76.87 5.4 3.54 5.4 1.68 0 3.03-.84 4.62-2.73zm20.788 5.431h-10.498c0 3.24 1.17 5.278 4.8 5.278a17.923 17.923 0 0 0 4.949-.69l.33 2.13a20.693 20.693 0 0 1-5.76.81c-4.95 0-7.289-2.64-7.289-7.92 0-4.919 2.58-8.099 7.23-8.099 4.29 0 6.27 2.91 6.27 6.9 0 .33-.031 1.05-.031 1.59zm-6.418-6.36a4.15 4.15 0 0 0-4.08 4.35h7.71c.09-2.64-1.23-4.35-3.63-4.35zm18.495 13.529h-2.94v-23.056h2.94zm.378-12.004l8.53-11.052h3.9l-9.04 10.99 9.1 12.066h-3.81zm23.971 12.004l-.24-1.56a6.853 6.853 0 0 1-4.92 1.92c-3.18 0-5.16-1.59-5.16-4.53 0-3.3 2.85-4.77 7.14-4.77h2.55v-.99c0-2.37-.84-3.51-3.57-3.51a13.142 13.142 0 0 0-4.44.87l-.54-2.16a16.466 16.466 0 0 1 5.46-.93c4.38 0 5.88 2.28 5.88 5.19v10.47zm-.63-6.96h-2.55c-2.85 0-4.2.93-4.2 2.64 0 1.56.93 2.52 2.76 2.52a5.795 5.795 0 0 0 3.99-1.74zm27.377 6.96v-9c0-2.58-.362-4.32-2.641-4.32-1.86 0-2.7.9-4.14 2.58v10.74h-2.819v-9c0-2.58-.361-4.32-2.611-4.32-1.889 0-2.7.9-4.139 2.58v10.74h-2.82v-15.3h2.16l.36 2.25c1.47-1.77 2.759-2.61 4.95-2.61 2.309 0 3.748.9 4.44 2.85 1.59-2.01 2.94-2.85 5.159-2.85 3.9 0 4.919 2.67 4.919 6.09v9.57zm20.699-7.169h-10.5c0 3.24 1.17 5.278 4.8 5.278a17.928 17.928 0 0 0 4.95-.69l.33 2.13a20.699 20.699 0 0 1-5.76.81c-4.95 0-7.289-2.64-7.289-7.92 0-4.919 2.58-8.099 7.229-8.099 4.29 0 6.27 2.91 6.27 6.9 0 .33-.03 1.05-.03 1.59zm-6.42-6.36a4.15 4.15 0 0 0-4.08 4.35h7.71c.09-2.64-1.23-4.35-3.63-4.35zm19.23.779a6.55 6.55 0 0 0-1.62-.27c-1.05 0-1.98.96-3.75 3.18v9.84h-2.82v-15.3h2.19l.301 2.82c1.649-2.19 2.639-3.18 4.17-3.18a5.905 5.905 0 0 1 1.95.27z" transform="translate(-158 -95.766)" fill="#121469"/><path class="cls-2" d="M220.048 172.302h-2.522v-7.618h2.704a3.426 3.426 0 0 1 3.718 3.705 3.562 3.562 0 0 1-3.9 3.913zm.039-6.591h-1.3v5.564h1.274c1.677 0 2.561-.897 2.561-2.822 0-1.56-.78-2.742-2.535-2.742zm9.828 6.591v-7.618h4.303v1.013h-3.042v2.158h2.64v1.001h-2.64v2.42h3.094v1.026zm14.469 0L242.603 169h-.806v3.302h-1.261v-7.618h2.262c1.703 0 2.613.779 2.613 2.066a2.114 2.114 0 0 1-1.52 2.055l2.027 3.497zm-1.742-6.617h-.845v2.34h.832c1.014 0 1.443-.533 1.443-1.17 0-.61-.35-1.17-1.43-1.17zm15.651 6.747a5.885 5.885 0 0 1-1.755-.247l.169-1.092a5.287 5.287 0 0 0 1.69.286c.871 0 1.352-.443 1.352-1.157 0-.689-.584-1.001-1.339-1.34-1-.429-1.911-.923-1.911-2.157 0-1.391 1.092-2.159 2.522-2.159a5.528 5.528 0 0 1 1.651.248l-.247 1a4.742 4.742 0 0 0-1.443-.22.985.985 0 0 0-1.13 1.04c0 .507.376.793.883 1.026 1.08.533 2.38.963 2.38 2.457 0 1.56-1.288 2.315-2.822 2.315zm11.232-6.722v6.592h-1.274v-6.591h-2.288v-1.027h5.85v1.027zm12.364 6.592c-.208-.663-.403-1.314-.611-1.937h-3.134c-.208.61-.402 1.274-.598 1.937h-1.287c.82-2.548 1.781-5.226 2.796-7.618h1.352a94.56 94.56 0 0 1 2.846 7.618zm-2.198-6.358c-.416 1.067-.858 2.354-1.222 3.42h2.458c-.351-1.066-.832-2.327-1.236-3.42zm11.57-.234v6.592h-1.274v-6.591H287.7v-1.027h5.85v1.027zm7.865 6.592v-7.618h4.304v1.013h-3.043v2.158h2.64v1.001h-2.64v2.42h3.093v1.026zm15.509 0l-3.718-5.954v5.954h-1.157v-7.618h1.573l3.627 5.836v-5.836h1.157v7.618zm6.24-3.432v-1.027h3.34v1.026zm13.923-2.679a4.289 4.289 0 0 0-2.146-.572 2.892 2.892 0 0 0 .027 5.76 5.123 5.123 0 0 0 1.26-.182v-2.977h1.262v3.77a7.92 7.92 0 0 1-2.627.442 3.6 3.6 0 0 1-3.847-3.862 3.777 3.777 0 0 1 3.978-3.99 5.358 5.358 0 0 1 2.535.637zm6.812 6.111v-7.618h4.302v1.013h-3.04v2.158h2.638v1.001h-2.639v2.42h3.094v1.026zm15.51 0l-3.72-5.954v5.954h-1.157v-7.618h1.573l3.627 5.836v-5.836h1.158v7.618zm8.345 0v-7.618h4.303v1.013h-3.042v2.158h2.64v1.001h-2.64v2.42h3.094v1.026zm14.469 0L378.152 169h-.806v3.302h-1.26v-7.618h2.262c1.703 0 2.613.779 2.613 2.066a2.115 2.115 0 0 1-1.522 2.055l2.028 3.497zm-1.743-6.617h-.845v2.34h.832c1.014 0 1.443-.533 1.443-1.17 0-.61-.35-1.17-1.43-1.17zm13.741 6.617c-.207-.663-.403-1.314-.612-1.937h-3.133c-.207.61-.402 1.274-.597 1.937h-1.287c.82-2.548 1.781-5.226 2.795-7.618h1.352a94.597 94.597 0 0 1 2.847 7.618zm-2.198-6.358c-.416 1.067-.857 2.354-1.22 3.42h2.457c-.352-1.066-.832-2.327-1.237-3.42zm13.664 6.358c-.209-.663-.404-1.314-.61-1.937h-3.134c-.209.61-.404 1.274-.598 1.937h-1.287c.819-2.548 1.78-5.226 2.795-7.618h1.352a95.335 95.335 0 0 1 2.848 7.618zm-2.197-6.358c-.416 1.067-.858 2.354-1.223 3.42h2.457c-.35-1.066-.832-2.327-1.234-3.42zm9.035 6.358v-7.618h1.261v6.591h2.938v1.027z" transform="translate(-158 -95.766)"/></svg>