<?xml version="1.0" encoding="UTF-8"?>
<svg width="77px" height="78px" viewBox="0 0 77 78" version="1.1" xmlns="http://www.w3.org/2000/svg" xmlns:xlink="http://www.w3.org/1999/xlink">
    <title>Untitled 3</title>
    <g id="Page-1" stroke="none" stroke-width="1" fill="none" fill-rule="evenodd">
        <path d="M0.883282145,71.569498 C0.883282145,74.5852259 3.3900041,77.0314295 6.48234781,77.0314295 L71.0515278,77.0314295 C74.1437696,77.0314295 76.6505934,74.5852259 76.6505934,71.569498 L76.6505934,6.24536723 C76.6505934,3.22862048 74.1437696,0.783435681 71.0515278,0.783435681 L6.48234781,0.783435681 C3.3900041,0.783435681 0.883282145,3.22862048 0.883282145,6.24536723 L0.883282145,71.569498 L0.883282145,71.569498 Z" id="path14" fill="#006699" fill-rule="nonzero" transform="translate(38.766938, 38.907433) scale(-1, 1) rotate(-180.000000) translate(-38.766938, -38.907433) "></path>
        <path d="M23.8506992,13.5829593 L23.8506992,48.0131989 L12.4067249,48.0131989 L12.4067249,13.5829593 L23.8506992,13.5829593 Z M18.1286611,52.7140667 C22.1194065,52.7140667 24.6033067,55.3579228 24.6033067,58.6619787 C24.5289323,62.0404091 22.1194065,64.6109096 18.20436,64.6109096 C14.289721,64.6109096 11.7302238,62.0404091 11.7302238,58.6619787 C11.7302238,55.3579228 14.2136146,52.7140667 18.054083,52.7140667 L18.1284574,52.7140667 L18.1286611,52.7140667 Z" id="path28" fill="#FFFFFF" transform="translate(18.166765, 39.096934) scale(-1, 1) rotate(-180.000000) translate(-18.166765, -39.096934) "></path>
        <path d="M30.1830147,29.3727401 L41.6268871,29.3727401 L41.6268871,48.6000433 C41.6268871,49.6290585 41.7012614,50.657055 42.0034455,51.3926481 C42.830733,53.448641 44.7137291,55.5779894 47.8751493,55.5779894 C52.0161716,55.5779894 53.6726824,52.4206445 53.6726824,47.7921135 L53.6726824,29.3727401 L65.1156379,29.3727401 L65.1156379,49.1145509 C65.1156379,59.6899752 59.4698081,64.6109096 51.9405747,64.6109096 C45.7668906,64.6109096 43.056607,61.1601425 41.5507807,58.8097086 L41.6271927,58.8097086 L41.6271927,63.8029798 L30.1830147,63.8029798 C30.3334954,60.5722793 30.1830147,29.3727401 30.1830147,29.3727401 L30.1830147,29.3727401 Z" id="path30" fill="#FFFFFF" transform="translate(47.649326, 46.991825) scale(-1, 1) rotate(-180.000000) translate(-47.649326, -46.991825) "></path>
    </g>
</svg>