<?xml version="1.0" encoding="utf-8"?>
<!-- Generator: Adobe Illustrator 16.0.0, SVG Export Plug-In . SVG Version: 6.00 Build 0)  -->
<!DOCTYPE svg PUBLIC "-//W3C//DTD SVG 1.0//EN" "http://www.w3.org/TR/2001/REC-SVG-20010904/DTD/svg10.dtd">
<svg version="1.0" id="Ebene_1" xmlns="http://www.w3.org/2000/svg" xmlns:xlink="http://www.w3.org/1999/xlink" x="0px" y="0px"
	 width="593.639px" height="320.629px" viewBox="0 0 593.639 320.629" enable-background="new 0 0 593.639 320.629"
	 xml:space="preserve">
<path fill="#611B1A" d="M115.101,285.055c-1.902-0.615-3.896-0.615-5.711-0.615H94.808v35.29h4.995v-14.325h9.142
	c2.157,0,3.947-0.063,5.751-0.558c5.005-1.468,6.888-6.05,6.888-10.037C121.584,290.086,119.088,286.342,115.101,285.055
	 M99.803,288.797h9.699c1.744,0,3.636,0.052,5.195,1.4c1.453,1.187,1.79,3.006,1.79,4.5c0,1.641-0.492,3.65-2.188,4.929
	c-1.6,1.207-3.252,1.371-5.69,1.371h-8.805V288.797z"/>
<polygon fill="#611B1A" points="155.585,299.075 137.203,299.075 137.203,284.411 132.11,284.411 132.11,319.73 137.203,319.73 
	137.203,303.574 155.585,303.574 155.585,319.73 160.681,319.73 160.681,284.411 155.585,284.411 "/>
<rect x="173.658" y="284.44" fill="#611B1A" width="5.098" height="35.29"/>
<polygon fill="#611B1A" points="196.298,284.411 191.211,284.411 191.211,319.73 212.736,319.73 212.736,315.179 196.298,315.179 
	"/>
<polygon fill="#611B1A" points="245.326,299.075 226.929,299.075 226.929,284.411 221.836,284.411 221.836,319.73 226.929,319.73 
	226.929,303.574 245.326,303.574 245.326,319.73 250.418,319.73 250.418,284.411 245.326,284.411 "/>
<path fill="#611B1A" d="M273.317,284.44l-13.118,35.295h5.444l3.543-10.006h13.381l3.496,10.006h5.353l-12.643-35.295H273.317z
	 M276.028,290.403l5.104,15.002H270.73L276.028,290.403z"/>
<path fill="#611B1A" d="M328.338,294.944c0-3.387-1.248-6.29-3.748-8.242c-2.848-2.139-5.798-2.262-10.656-2.262h-12.669v35.29
	h4.945v-14.592h8.497l9.028,14.592h5.988l-9.49-15.093C321.991,304.299,328.338,302.888,328.338,294.944 M306.21,300.904v-12.198
	h7.888c2.945,0,5.093,0,6.889,1.34c2.156,1.614,2.248,4.038,2.248,4.898c0,3.057-1.896,4.99-4.785,5.644
	c-1.345,0.316-2.648,0.316-4.299,0.316H306.21z"/>
<polygon fill="#611B1A" points="358.104,312.829 348.072,284.44 341.324,284.44 341.324,319.73 346.278,319.73 345.722,290.649 
	356.019,319.73 360.108,319.73 370.545,290.259 369.906,319.73 374.952,319.73 374.952,284.44 368.151,284.44 "/>
<polygon fill="#611B1A" points="456.011,312.082 437.579,284.44 432.864,284.44 432.864,319.73 437.672,319.73 437.271,291.844 
	455.807,319.73 460.356,319.73 460.356,284.44 455.648,284.44 "/>
<rect x="473.736" y="284.44" fill="#611B1A" width="5.089" height="35.29"/>
<polygon fill="#611B1A" points="519.222,284.44 513.01,284.44 496.786,301.478 496.786,284.44 491.734,284.44 491.734,319.73 
	496.786,319.73 496.786,307.479 501.817,302.244 513.771,319.73 519.819,319.73 505.437,298.797 "/>
<polygon fill="#611B1A" points="534.206,303.788 551.344,303.788 551.344,299.339 534.206,299.339 534.206,288.941 553.737,288.941 
	553.737,284.44 529.257,284.44 529.257,319.73 554.495,319.73 554.495,315.282 534.206,315.282 "/>
<path fill="#611B1A" d="M584.154,304.637c1.749-0.332,8.099-1.749,8.099-9.693c0-3.387-1.252-6.29-3.763-8.242
	c-2.839-2.139-5.777-2.256-10.641-2.256h-12.694v35.284h4.959v-14.592h8.502l9.04,14.592h5.982L584.154,304.637z M570.114,288.706
	h7.896c2.944,0,5.106,0,6.9,1.34c2.145,1.62,2.235,4.038,2.235,4.898c0,3.057-1.893,4.994-4.796,5.649
	c-1.351,0.311-2.644,0.311-4.296,0.311h-7.939V288.706z"/>
<path fill="#611B1A" d="M116.296,245.001c1.544-0.441,3.047-1.34,4.09-2.845c0.859-1.257,1.412-2.903,1.412-4.753
	c0-5.14-3.906-7.885-7.451-8.638c-1.498-0.301-2.749-0.301-5.353-0.301H94.854v35.279h13.783c4.966,0,7.261-0.047,9.909-1.657
	c3.845-2.301,4.459-6.002,4.459-8.149C123.006,247.352,118.133,245.461,116.296,245.001 M114.195,258.795
	c-1.151,0.358-2.045,0.502-4.847,0.502h-9.648v-11.945h8.248c3.947,0,5.547,0.093,7,1.136c0.443,0.317,2.832,1.615,2.832,5.04
	C117.779,256.085,116.747,258.002,114.195,258.795 M115.3,241.114c-1.104,1.361-2.505,1.79-4.653,1.944
	c-1.196,0.082-2.699,0.082-4.601,0.082h-6.346v-10.267h9.602c1.999,0,4.301,0.092,5.839,1.595c0.809,0.797,1.345,1.893,1.345,3.384
	C116.486,239.024,116.036,240.153,115.3,241.114"/>
<polygon fill="#611B1A" points="140.425,247.792 157.552,247.792 157.552,243.364 140.425,243.364 140.425,232.956 159.951,232.956 
	159.951,228.47 135.459,228.47 135.459,263.745 160.692,263.745 160.692,259.297 140.425,259.297 "/>
<path fill="#611B1A" d="M200.618,263.745l-9.483-15.095c1.753-0.357,8.078-1.737,8.078-9.692c0-3.396-1.248-6.289-3.729-8.242
	c-2.848-2.148-5.813-2.239-10.654-2.239h-12.685v35.269h4.938v-14.577h8.494l9.045,14.577H200.618z M177.083,244.908v-12.188h7.894
	c2.947,0,5.109,0,6.899,1.339c2.142,1.605,2.249,4.05,2.249,4.899c0,3.047-1.902,4.989-4.8,5.644
	c-1.339,0.307-2.643,0.307-4.306,0.307H177.083z"/>
<polygon fill="#611B1A" points="232.619,259.183 216.167,259.183 216.167,228.415 211.074,228.415 211.074,263.745 232.619,263.745 
	"/>
<rect x="241.802" y="228.476" fill="#611B1A" width="5.093" height="35.269"/>
<polygon fill="#611B1A" points="264.442,235.86 282.977,263.745 287.517,263.745 287.517,228.465 282.823,228.465 283.176,256.085 
	264.744,228.465 260.044,228.465 260.044,263.745 264.835,263.745 "/>
<polygon fill="#611B1A" points="326.829,259.297 306.536,259.297 306.536,247.792 323.676,247.792 323.676,243.364 306.536,243.364 
	306.536,232.956 326.088,232.956 326.088,228.465 301.598,228.465 301.598,263.749 326.829,263.749 "/>
<path fill="#611B1A" d="M343.205,249.163h8.497l9.051,14.582h5.986l-9.484-15.095c1.749-0.357,8.101-1.737,8.101-9.688
	c0-3.401-1.269-6.294-3.753-8.247c-2.843-2.148-5.81-2.239-10.646-2.239h-12.681v35.269h4.929V249.163z M358.002,234.058
	c2.153,1.605,2.24,4.05,2.24,4.904c0,3.042-1.887,4.984-4.786,5.639c-1.346,0.307-2.644,0.307-4.305,0.307h-7.946v-12.188h7.905
	C354.066,232.719,356.208,232.719,358.002,234.058"/>
<path fill="#611B1A" d="M403.956,283.561c-8.931,0-17.639,5.906-17.639,18.539c0,2.363,0.337,4.634,0.977,6.688
	c0.817,2.546,2.117,4.817,3.87,6.698c3.144,3.385,7.501,5.143,12.629,5.143c8.819,0,14.512-4.867,16.719-11.841
	c0.69-2.168,1.028-4.521,1.028-7.005C421.54,290.198,413.594,283.561,403.956,283.561 M403.997,316.427
	c-5.777,0-9.376-3.211-11.069-7.639c-0.791-2.045-1.16-4.325-1.16-6.688c0-7.862,3.85-14.305,12.188-14.305
	c7.885,0,12.195,6.003,12.195,14.184c0,2.402-0.379,4.738-1.166,6.81C413.318,313.216,409.79,316.427,403.997,316.427"/>
<path fill="#611B1A" d="M94.333,0L0.353,84.612L0,84.935l51.63,115.974l126.241-13.282l26.295-123.696l0.099-0.464L94.333,0z
	 M59.237,38.163l-38.565,81.203L5.89,86.118L59.237,38.163z M180.924,121.377l-3.165-17.19l7.745,11.105L180.924,121.377z
	 M164.66,150.819l13.401-17.911l1.82,9.436L164.66,150.819z M137.182,187.018l19.271-26.134l25.278-14.007l-7.976,36.325
	L137.182,187.018z M146.273,166.516l-13.968,18.269l-10.6-4.661L146.273,166.516z M111.037,180.474l-16.039,8.885l-32.457-30.867
	L111.037,180.474z M90.503,191.924l-35.837,3.844l-29.547-66.332C25.119,129.437,89.419,190.94,90.503,191.924 M153.948,156.716
	l-37.631,20.837l-57.488-26.058l6.411-80.167l78.958-17.293l26.745,39.931l6.048,32.745L153.948,156.716z M146.504,48.639
	L60.878,67.403l-6.815,82.685L24.69,122.262l41.424-87.29l96.311,12.898l6.361,34.381L146.504,48.639z M126.753,188.167
	l-24.041,2.472l13.681-7.577L126.753,188.167z M187.643,119.93l-3.906,17.829l-1.667-10.157L187.643,119.93z M198.792,65.91
	l-9.801,46.005l-13.523-20.057l-8.134-44.094L198.792,65.91z M68.012,30.31L94.98,5.946l63.078,36.444L68.012,30.31z"/>
</svg>
