<?xml version="1.0" encoding="UTF-8"?>
<svg width="113px" height="29px" viewBox="0 0 113 29" version="1.1" xmlns="http://www.w3.org/2000/svg" xmlns:xlink="http://www.w3.org/1999/xlink">
    <title>Logo</title>
    <g id="Page-1" stroke="none" stroke-width="1" fill="none" fill-rule="evenodd">
        <g id="BLOOMLINE-A-C-O-U-S" transform="translate(33.477000, 3.690000)" fill-rule="nonzero">
            <path d="M3.277,9.31 C4.383,9.31 5.307,9.142 6.021,8.75 C6.847,8.288 7.365,7.574 7.365,6.636 C7.365,5.236 6.273,4.62 4.887,4.41 L4.887,4.368 C5.671,4.158 6.777,3.612 6.777,2.282 C6.777,1.638 6.497,1.022 5.993,0.686 C5.559,0.378 4.943,0.21 3.893,0.21 L0.295,0.21 L0.295,0.602 C1.415,0.686 1.471,0.77 1.471,1.932 L1.471,7.574 C1.471,8.75 1.387,8.834 0.183,8.918 L0.183,9.31 L3.277,9.31 Z M3.305,4.242 L2.647,4.242 L2.647,1.498 C2.647,1.036 2.703,0.882 2.829,0.798 C2.969,0.714 3.277,0.658 3.627,0.658 C4.957,0.658 5.489,1.498 5.489,2.45 C5.489,3.626 4.845,4.242 3.305,4.242 Z M3.809,8.834 C2.913,8.834 2.647,8.568 2.647,7.56 L2.647,4.704 L3.291,4.704 C4.999,4.704 5.979,5.334 5.979,6.776 C5.979,8.232 4.957,8.82 3.809,8.834 Z M14.701,9.31 C14.827,8.876 15.121,7.546 15.205,7.112 L14.785,7.028 C14.575,7.672 14.309,8.12 14.071,8.4 C13.749,8.764 13.273,8.834 12.503,8.834 C11.915,8.834 11.439,8.806 11.159,8.652 C10.907,8.512 10.837,8.232 10.837,7.476 L10.837,1.946 C10.837,0.756 10.963,0.686 12.069,0.602 L12.069,0.21 L8.415,0.21 L8.415,0.602 C9.549,0.686 9.647,0.756 9.647,1.946 L9.647,7.546 C9.647,8.736 9.535,8.834 8.359,8.918 L8.359,9.31 L14.701,9.31 Z M20.441,9.52 C23.003,9.52 25.117,7.672 25.117,4.648 C25.117,1.848 22.975,0 20.609,0 L20.595,0 C17.655,0 15.891,2.338 15.891,4.858 C15.891,7.546 17.907,9.52 20.441,9.52 Z M20.735,9.016 C18.761,9.016 17.319,7.098 17.319,4.466 C17.319,1.848 18.747,0.504 20.301,0.504 L20.315,0.504 C22.149,0.504 23.689,2.072 23.689,5.026 C23.689,7.714 22.289,9.016 20.735,9.016 Z M31.151,9.52 C33.713,9.52 35.827,7.672 35.827,4.648 C35.827,1.848 33.685,0 31.319,0 L31.305,0 C28.365,0 26.601,2.338 26.601,4.858 C26.601,7.546 28.617,9.52 31.151,9.52 Z M31.445,9.016 C29.471,9.016 28.029,7.098 28.029,4.466 C28.029,1.848 29.457,0.504 31.011,0.504 L31.025,0.504 C32.859,0.504 34.399,2.072 34.399,5.026 C34.399,7.714 32.999,9.016 31.445,9.016 Z M39.859,9.31 L39.859,8.918 C38.935,8.82 38.599,8.722 38.571,8.05 C38.557,7.49 38.557,6.874 38.613,5.726 L38.823,1.736 L38.851,1.736 L41.987,9.212 L42.267,9.212 L45.683,1.54 L45.739,1.54 L45.781,7.252 C45.795,8.736 45.739,8.806 44.605,8.918 L44.605,9.31 L48.287,9.31 L48.287,8.918 C47.069,8.806 47.027,8.736 46.985,7.252 L46.845,2.184 C46.803,0.742 46.901,0.714 48.133,0.602 L48.133,0.21 L45.753,0.21 L42.519,7.21 L39.327,0.21 L37.031,0.21 L37.031,0.602 C38.305,0.728 38.375,0.784 38.249,2.604 L38.053,5.516 C37.941,6.972 37.857,7.588 37.787,8.078 C37.689,8.666 37.409,8.82 36.597,8.918 L36.597,9.31 L39.859,9.31 Z M55.553,9.31 C55.679,8.876 55.973,7.546 56.057,7.112 L55.637,7.028 C55.427,7.672 55.161,8.12 54.923,8.4 C54.601,8.764 54.125,8.834 53.355,8.834 C52.767,8.834 52.291,8.806 52.011,8.652 C51.759,8.512 51.689,8.232 51.689,7.476 L51.689,1.946 C51.689,0.756 51.815,0.686 52.921,0.602 L52.921,0.21 L49.267,0.21 L49.267,0.602 C50.401,0.686 50.499,0.756 50.499,1.946 L50.499,7.546 C50.499,8.736 50.387,8.834 49.211,8.918 L49.211,9.31 L55.553,9.31 Z M60.481,9.31 L60.481,8.918 C59.382913,8.83765217 59.2326975,8.77011342 59.2217111,7.71070683 L59.221,1.96 C59.221,0.77 59.333,0.686 60.481,0.602 L60.481,0.21 L56.771,0.21 L56.771,0.602 C57.919,0.686 58.031,0.77 58.031,1.96 L58.031,7.56 C58.031,8.75 57.919,8.834 56.771,8.918 L56.771,9.31 L60.481,9.31 Z M69.819,9.436 L69.819,3.794 C69.819,2.492 69.847,1.862 69.903,1.442 C69.959,0.826 70.295,0.644 71.079,0.602 L71.079,0.21 L67.775,0.21 L67.775,0.602 C68.741,0.658 69.077,0.84 69.147,1.47 C69.189,1.862 69.245,2.506 69.245,3.794 L69.245,7.238 L69.203,7.238 L63.365,0.21 L61.293,0.21 L61.293,0.602 C61.951,0.658 62.259,0.77 62.539,1.12 C62.791,1.456 62.819,1.512 62.819,2.534 L62.819,5.614 C62.819,6.902 62.777,7.574 62.735,8.008 C62.665,8.694 62.315,8.876 61.503,8.918 L61.503,9.31 L64.821,9.31 L64.821,8.918 C63.869,8.862 63.547,8.694 63.477,7.98 C63.4378,7.60106667 63.3986,6.99041778 63.3935476,5.86349037 L63.393,2.1 L63.421,2.1 L69.385,9.436 L69.819,9.436 Z M78.569,9.31 C78.695,8.876 78.975,7.56 79.059,7.098 L78.639,7.042 C78.457,7.602 78.191,8.078 77.953,8.358 C77.645,8.722 77.253,8.834 76.189,8.834 C75.489,8.834 74.999,8.82 74.733,8.652 C74.481,8.47 74.397,8.176 74.397,7.518 L74.397,4.872 L75.727,4.872 C76.945,4.872 77.043,4.956 77.225,5.964 L77.631,5.964 L77.631,3.276 L77.225,3.276 C77.0512727,4.17136364 76.979595,4.31411157 75.8775644,4.32523873 L74.397,4.326 L74.397,1.148 C74.397,0.728 74.425,0.7 74.859,0.7 L75.923,0.7 C76.931,0.7 77.309,0.798 77.505,1.092 C77.687,1.4 77.827,1.708 77.953,2.296 L78.359,2.226 C78.317,1.512 78.247,0.56 78.247,0.21 L72.003,0.21 L72.003,0.602 C73.095,0.7 73.207,0.742 73.207,2.002 L73.207,7.574 C73.207,8.708 73.095,8.82 71.821,8.918 L71.821,9.31 L78.569,9.31 Z" id="BLOOMLINE" fill="#000000"></path>
            <path d="M2.387,21.31 L2.387,21.002 C1.562,20.925 1.463,20.815 1.705,20.122 C1.848,19.66 2.013,19.198 2.189,18.703 L4.532,18.703 C4.774,19.374 4.994,19.968 5.137,20.397 C5.28,20.826 5.181,20.914 4.488,21.002 L4.488,21.31 L7.183,21.31 L7.183,21.002 C6.468,20.936 6.325,20.837 5.973,19.891 C5.269,17.977 4.532,15.887 3.85,13.995 L3.509,14.094 L1.232,19.869 C0.847,20.837 0.693,20.903 0,21.002 L0,21.31 L2.387,21.31 Z M4.378,18.23 L2.354,18.23 C2.684,17.328 3.036,16.371 3.388,15.425 L3.41,15.425 L4.378,18.23 Z M14.3,21.475 C15.092,21.475 16.016,21.255 16.324,21.178 C16.522,20.815 16.797,20.001 16.951,19.495 L16.632,19.374 C16.082,20.474 15.488,21.079 14.366,21.079 C12.694,21.079 11.484,19.671 11.484,17.614 C11.484,15.942 12.463,14.391 14.3,14.391 C15.488,14.391 16.148,14.864 16.434,16.03 L16.764,15.953 C16.698,15.359 16.632,14.919 16.544,14.292 C16.236,14.237 15.488,13.995 14.597,13.995 C12.144,13.995 10.362,15.524 10.362,17.834 C10.362,19.583 11.561,21.475 14.3,21.475 Z M23.749,21.475 C25.762,21.475 27.423,20.023 27.423,17.647 C27.423,15.447 25.74,13.995 23.881,13.995 L23.87,13.995 C21.56,13.995 20.174,15.832 20.174,17.812 C20.174,19.924 21.758,21.475 23.749,21.475 Z M23.98,21.079 C22.429,21.079 21.296,19.572 21.296,17.504 C21.296,15.447 22.418,14.391 23.639,14.391 L23.65,14.391 C25.091,14.391 26.301,15.623 26.301,17.944 C26.301,20.056 25.201,21.079 23.98,21.079 Z M34.452,21.464 C35.178,21.464 35.915,21.233 36.421,20.705 C37.059,20.034 37.257,19.099 37.257,17.801 L37.257,16.899 C37.257,15.887 37.279,15.414 37.312,15.117 C37.367,14.666 37.62,14.512 38.28,14.468 L38.28,14.16 L35.662,14.16 L35.662,14.468 C36.432,14.523 36.663,14.655 36.729,15.084 C36.773,15.425 36.806,15.887 36.806,16.899 L36.806,17.724 C36.806,19.539 36.311,20.859 34.727,20.859 C33.363,20.859 32.659,19.847 32.659,18.076 L32.659,15.579 C32.659,14.589 32.747,14.523 33.616,14.468 L33.616,14.16 L30.767,14.16 L30.767,14.468 C31.636,14.545 31.724,14.589 31.724,15.579 L31.724,18.318 C31.724,19.605 32.032,20.43 32.692,20.936 C33.176,21.31 33.814,21.464 34.452,21.464 Z M43.373,21.475 C44.836,21.475 45.815,20.551 45.815,19.396 C45.815,18.164 44.77,17.647 43.912,17.207 C43.043,16.756 42.515,16.382 42.515,15.579 C42.515,14.985 42.889,14.369 43.736,14.369 C44.693,14.369 44.979,15.128 45.177,15.832 L45.496,15.766 C45.408,15.073 45.353,14.644 45.309,14.248 C44.891,14.116 44.429,13.995 43.923,13.995 C42.504,13.995 41.657,14.897 41.657,15.953 C41.657,17.196 42.768,17.746 43.472,18.12 C44.297,18.56 44.902,18.945 44.902,19.759 C44.902,20.562 44.407,21.079 43.582,21.079 C42.449,21.079 41.954,19.968 41.778,19.297 L41.459,19.374 C41.525,19.902 41.668,20.848 41.756,21.079 C41.855,21.134 42.02,21.211 42.295,21.31 C42.57,21.387 42.922,21.475 43.373,21.475 Z M53.713,21.31 L53.713,21.002 C52.72025,20.9393 52.5911925,20.83689 52.5807686,20.0817469 L52.58,14.545 L53.361,14.545 C54.186,14.545 54.373,14.622 54.549,14.886 C54.681,15.062 54.78,15.337 54.901,15.865 L55.22,15.832 C55.165,15.194 55.11,14.391 55.11,13.885 L54.879,13.885 C54.703,14.094 54.615,14.16 54.318,14.16 L49.973,14.16 C49.665,14.16 49.522,14.138 49.368,13.885 L49.148,13.885 C49.126,14.49 49.071,15.205 49.016,15.865 L49.335,15.865 C49.467,15.381 49.555,15.073 49.687,14.886 C49.83,14.633 50.05,14.545 50.963,14.545 L51.645,14.545 L51.645,19.957 C51.645,20.826 51.557,20.936 50.556,21.002 L50.556,21.31 L53.713,21.31 Z M61.325,21.31 L61.325,21.002 C60.4681,20.9393 60.345835,20.8865275 60.3357507,20.0703303 L60.335,15.535 C60.335,14.6 60.423,14.534 61.325,14.468 L61.325,14.16 L58.41,14.16 L58.41,14.468 C59.312,14.534 59.4,14.6 59.4,15.535 L59.4,19.935 C59.4,20.87 59.312,20.936 58.41,21.002 L58.41,21.31 L61.325,21.31 Z M68.662,21.475 C69.454,21.475 70.378,21.255 70.686,21.178 C70.884,20.815 71.159,20.001 71.313,19.495 L70.994,19.374 C70.444,20.474 69.85,21.079 68.728,21.079 C67.056,21.079 65.846,19.671 65.846,17.614 C65.846,15.942 66.825,14.391 68.662,14.391 C69.85,14.391 70.51,14.864 70.796,16.03 L71.126,15.953 C71.06,15.359 70.994,14.919 70.906,14.292 C70.598,14.237 69.85,13.995 68.959,13.995 C66.506,13.995 64.724,15.524 64.724,17.834 C64.724,19.583 65.923,21.475 68.662,21.475 Z M76.428,21.475 C77.891,21.475 78.87,20.551 78.87,19.396 C78.87,18.164 77.825,17.647 76.967,17.207 C76.098,16.756 75.57,16.382 75.57,15.579 C75.57,14.985 75.944,14.369 76.791,14.369 C77.748,14.369 78.034,15.128 78.232,15.832 L78.551,15.766 C78.463,15.073 78.408,14.644 78.364,14.248 C77.946,14.116 77.484,13.995 76.978,13.995 C75.559,13.995 74.712,14.897 74.712,15.953 C74.712,17.196 75.823,17.746 76.527,18.12 C77.352,18.56 77.957,18.945 77.957,19.759 C77.957,20.562 77.462,21.079 76.637,21.079 C75.504,21.079 75.009,19.968 74.833,19.297 L74.514,19.374 C74.58,19.902 74.723,20.848 74.811,21.079 C74.91,21.134 75.075,21.211 75.35,21.31 C75.625,21.387 75.977,21.475 76.428,21.475 Z" id="ACOUSTICS" fill="#838383"></path>
        </g>
        <g id="Group" stroke="#D50000">
            <circle id="Oval" cx="20.5" cy="20.5" r="8"></circle>
            <circle id="Oval" cx="8.5" cy="20.5" r="8"></circle>
            <circle id="Oval" cx="8.5" cy="8.5" r="8"></circle>
            <circle id="Oval" cx="20.5" cy="8.5" r="8"></circle>
        </g>
    </g>
</svg>