<?xml version="1.0" encoding="UTF-8"?>
<svg width="200px" height="248px" viewBox="0 0 200 248" version="1.1" xmlns="http://www.w3.org/2000/svg" xmlns:xlink="http://www.w3.org/1999/xlink">
    <title>Untitled 4</title>
    <g id="Page-1" stroke="none" stroke-width="1" fill="none" fill-rule="evenodd">
        <g id="Kroller_Muller" fill-rule="nonzero">
            <path d="M158.289,145.327 C155.348,145.327 153.423,147.42 152.803,150.701 L163.038,150.701 C162.982,147.588 161.51,145.327 158.289,145.327" id="Path" fill="#C81A78"></path>
            <path d="M158.289,99.154 C155.348,99.154 153.423,101.252 152.803,104.533 L163.038,104.533 C162.982,101.42 161.51,99.154 158.289,99.154" id="Path" fill="#C81A78"></path>
            <path d="M102.75,99.438 C99.072,99.438 96.415,102.211 96.415,106.738 C96.415,111.259 99.072,114.033 102.75,114.033 C106.423,114.033 109.084,111.26 109.084,106.738 C109.084,102.212 106.423,99.438 102.75,99.438" id="Path" fill="#C81A78"></path>
            <path d="M189.901,100.963 C188.26,100.291 186.452,100.119 184.815,100.119 C183.571,100.119 182.438,100.343 181.362,100.682 L181.362,119.351 L174.575,119.351 L174.575,96.05 C177.348,94.576 180.966,93.729 184.643,93.729 C186.62,93.729 188.037,93.897 189.901,94.409 L189.901,100.963 Z M189.901,147.136 C188.26,146.46 186.452,146.287 184.815,146.287 C183.571,146.287 182.438,146.516 181.362,146.851 L181.362,165.519 L174.575,165.519 L174.575,142.217 C177.348,140.744 180.966,139.901 184.643,139.901 C186.62,139.901 188.037,140.064 189.901,140.577 L189.901,147.136 Z M169.373,108.603 L152.746,108.603 L152.746,108.715 C153.255,112.28 156.765,114.089 160.153,114.089 C163.547,114.089 166.091,113.296 168.581,111.823 L168.581,117.594 C166.264,119.235 162.866,119.911 159.477,119.911 C151.273,119.911 146.127,114.877 146.127,107.017 C146.127,98.702 151.389,93.555 158.456,93.555 C166.319,93.555 169.372,98.757 169.372,105.437 L169.372,108.603 L169.373,108.603 Z M169.373,154.775 L152.746,154.775 L152.746,154.882 C153.255,158.444 156.765,160.256 160.153,160.256 C163.547,160.256 166.091,159.464 168.581,157.995 L168.581,163.762 C166.264,165.403 162.866,166.083 159.477,166.083 C151.273,166.083 146.127,161.044 146.127,153.189 C146.127,144.869 151.389,139.727 158.456,139.727 C166.319,139.727 169.372,144.929 169.372,151.604 L169.372,154.775 L169.373,154.775 Z M141.205,117.801 L141.205,119.352 L141.205,165.52 L134.419,165.52 L134.419,119.352 L134.419,117.801 L134.419,83.376 L141.205,83.376 L141.205,117.801 Z M127.632,117.801 L127.632,119.352 L127.632,165.52 L120.845,165.52 L120.845,119.352 L120.845,117.801 L120.845,83.376 L127.632,83.376 L127.632,117.801 Z M102.75,119.911 C95.227,119.911 89.572,114.597 89.572,106.738 C89.572,98.874 95.226,93.555 102.75,93.555 C110.272,93.555 115.983,98.873 115.983,106.738 C115.983,114.597 110.272,119.911 102.75,119.911 M111.014,136.676 C108.925,136.676 107.172,134.923 107.172,132.718 C107.172,130.565 108.925,128.868 111.014,128.868 C113.167,128.868 114.976,130.564 114.976,132.718 C114.976,134.923 113.167,136.676 111.014,136.676 M90.864,132.718 C90.864,130.565 92.617,128.868 94.71,128.868 C96.858,128.868 98.672,130.564 98.672,132.718 C98.672,134.923 96.859,136.676 94.71,136.676 C92.617,136.676 90.864,134.923 90.864,132.718 M114.687,164.783 C111.638,165.571 107.04,166.084 103.698,166.084 C95.994,166.084 91.158,163.818 91.158,156.355 L91.158,140.289 L98.38,140.289 L98.38,155.791 C98.38,159.013 99.874,160.485 103.638,160.485 C104.655,160.485 106.144,160.369 107.462,160.14 L107.462,140.288 L114.688,140.288 L114.688,164.783 L114.687,164.783 Z M87.651,100.963 C86.01,100.291 84.202,100.119 82.561,100.119 C81.312,100.119 80.184,100.343 79.107,100.682 L79.107,119.351 L72.321,119.351 L72.321,96.05 C75.093,94.576 78.712,93.729 82.389,93.729 C84.369,93.729 85.786,93.897 87.651,94.409 L87.651,100.963 Z M79.112,165.52 L75.365,140.401 L67.627,165.52 L60.612,165.52 L52.933,140.401 L49.182,165.52 L41.689,165.52 L46.948,129.571 L56.258,129.571 L64.303,155.895 L72.097,129.571 L81.411,129.571 L86.729,165.52 L79.112,165.52 Z M39.257,83.401 L46.944,83.401 L46.944,119.342 L39.257,119.342 L39.257,83.401 Z M59.41,83.401 L68.367,83.401 L55.595,100.954 L69.212,119.351 L60.134,119.351 L47.124,101.617 L59.41,83.401 Z M94.71,83.376 C96.858,83.376 98.672,85.072 98.672,87.224 C98.672,89.429 96.859,91.179 94.71,91.179 C92.617,91.179 90.864,89.429 90.864,87.224 C90.864,85.072 92.617,83.376 94.71,83.376 M111.014,83.376 C113.167,83.376 114.976,85.072 114.976,87.224 C114.976,89.429 113.167,91.179 111.014,91.179 C108.925,91.179 107.172,89.429 107.172,87.224 C107.172,85.072 108.925,83.376 111.014,83.376 M0.004,187.611 L200,187.611 L200,0.746 L0.004,0.746 L0.004,187.611 Z" id="Shape" fill="#C81A78"></path>
            <g id="Group" opacity="0.2" transform="translate(0.000000, 30.000000)" fill="#000000">
                <path d="M79.112,63.961 L79.112,63.952 C76.614,64.297 74.258,65.02 72.325,66.045 C74.259,65.021 76.614,64.306 79.112,63.961 Z" id="Path"></path>
                <path d="M39.407,0.455 L39.407,53.401 L46.943,53.401 L46.943,89.351 L39.407,89.351 L39.407,157.606 L39.407,170.766 L0,157.606 L79.112,217.258 L79.112,157.606 L79.112,135.506 L75.365,110.4 L71.494,122.958 L75.361,110.4 L67.623,135.515 L60.612,135.515 L60.607,135.515 L56.77,122.961 L52.93,110.4 L51.569,119.534 L49.183,135.515 L41.69,135.515 L41.686,135.515 L46.949,99.574 L56.259,99.574 L64.299,125.894 L68.201,112.734 L72.102,99.574 L79.113,99.574 L79.113,89.351 L72.322,89.351 L72.322,66.044 C74.263,65.02 76.611,64.296 79.113,63.951 L79.113,30.391 L39.407,0.455 Z M60.139,89.352 L47.124,71.618 L59.41,53.402 L68.363,53.402 L55.594,70.955 L69.211,89.352 L60.139,89.352 Z" id="Shape"></path>
            </g>
            <polygon id="Path" fill="#FFFFFF" points="0 0.741 0 187.606 39.407 200.767 39.407 13.899"></polygon>
            <polygon id="Path" fill="#FFFFFF" points="72.097 129.57 64.298 155.895 56.258 129.57 46.943 129.57 41.686 165.516 49.188 165.516 52.934 140.4 60.612 165.516 67.623 165.516 75.361 140.4 79.116 165.516 86.729 165.516 81.411 129.57"></polygon>
            <rect id="Rectangle" fill="#FFFFFF" x="39.257" y="83.401" width="7.687" height="35.941"></rect>
            <path d="M72.325,96.045 L72.325,119.347 L79.107,119.347 L79.107,100.688 C80.184,100.348 81.312,100.12 82.561,100.12 C84.198,100.12 86.01,100.292 87.651,100.968 L87.651,94.409 C85.782,93.892 84.37,93.729 82.389,93.729 C78.712,93.729 75.099,94.581 72.325,96.045" id="Path" fill="#FFFFFF"></path>
            <polygon id="Path" fill="#FFFFFF" points="69.212 119.352 55.595 100.95 68.367 83.401 59.41 83.401 47.124 101.617 60.139 119.352"></polygon>
            <path d="M174.575,142.218 L174.575,165.516 L181.362,165.516 L181.362,146.856 C182.438,146.516 183.567,146.288 184.811,146.288 C186.452,146.288 188.265,146.461 189.901,147.137 L189.901,140.578 C188.037,140.07 186.624,139.896999 184.643,139.896999 C180.966,139.896 177.349,140.745 174.575,142.218" id="Path" fill="#FFFFFF"></path>
            <path d="M184.644,93.729 C180.97,93.729 177.349,94.577 174.576,96.05 L174.576,119.352 L181.367,119.352 L181.367,100.683 C182.439,100.343 183.572,100.12 184.816,100.12 C186.453,100.12 188.261,100.292 189.902,100.964 L189.902,94.409 C188.037,93.9 186.62,93.729 184.644,93.729" id="Path" fill="#FFFFFF"></path>
            <path d="M152.803,104.528 C153.427,101.256 155.348,99.158 158.289,99.158 C161.514,99.158 162.982,101.42 163.038,104.528 L152.803,104.528 Z M158.457,93.556 C151.39,93.556 146.128,98.706 146.128,107.023 C146.128,114.881 151.274,119.916 159.478,119.916 C162.871,119.916 166.264,119.24 168.582,117.595 L168.582,111.829 C166.097,113.297 163.552,114.09 160.154,114.09 C156.765,114.09 153.256,112.281 152.747,108.716 L152.747,108.604 L169.37,108.604 L169.37,105.439 C169.369,98.763 166.32,93.556 158.457,93.556" id="Shape" fill="#FFFFFF"></path>
            <polygon id="Path" fill="#FFFFFF" points="120.85 117.801 120.85 119.352 120.85 165.516 127.636 165.516 127.636 119.352 127.636 117.801 127.636 83.376 120.85 83.376"></polygon>
            <path d="M94.71,91.181 C96.858,91.181 98.672,89.426 98.672,87.222 C98.672,85.075 96.859,83.376 94.71,83.376 C92.617,83.376 90.864,85.074 90.864,87.222 C90.864,89.426 92.617,91.181 94.71,91.181" id="Path" fill="#FFFFFF"></path>
            <path d="M152.803,150.701 C153.427,147.42 155.348,145.327 158.289,145.327 C161.514,145.327 162.982,147.592 163.038,150.701 L152.803,150.701 Z M158.457,139.729 C151.39,139.729 146.128,144.875 146.128,153.187 C146.128,161.05 151.274,166.084 159.478,166.084 C162.871,166.084 166.264,165.403 168.582,163.767 L168.582,157.993 C166.097,159.466 163.552,160.263 160.154,160.263 C156.765,160.263 153.256,158.446 152.747,154.884 L152.747,154.777 L169.37,154.777 L169.37,151.607 C169.369,144.931 166.32,139.729 158.457,139.729" id="Shape" fill="#FFFFFF"></path>
            <path d="M111.018,91.181 C113.167,91.181 114.976,89.426 114.976,87.222 C114.976,85.075 113.167,83.376 111.018,83.376 C108.921,83.376 107.172,85.074 107.172,87.222 C107.172,89.426 108.921,91.181 111.018,91.181" id="Path" fill="#FFFFFF"></path>
            <polygon id="Path" fill="#FFFFFF" points="134.423 117.801 134.423 119.352 134.423 165.516 141.21 165.516 141.21 119.352 141.21 117.801 141.21 83.376 134.423 83.376"></polygon>
            <path d="M107.456,160.146 C106.143,160.37 104.653,160.486 103.637,160.486 C99.873,160.486 98.383,159.013 98.383,155.788 L98.383,140.294 L91.157,140.294 L91.157,156.361 C91.157,163.819 95.993,166.085 103.697,166.085 C107.039,166.085 111.637,165.576 114.686,164.784 L114.686,140.294 L107.456,140.294 L107.456,160.146 L107.456,160.146 Z" id="Path" fill="#FFFFFF"></path>
            <path d="M102.75,114.033 C99.072,114.033 96.415,111.26 96.415,106.733 C96.415,102.212 99.072,99.438 102.75,99.438 C106.423,99.438 109.084,102.211 109.084,106.733 C109.084,111.26 106.423,114.033 102.75,114.033 M102.75,93.556 C95.227,93.556 89.572,98.879 89.572,106.734 C89.572,114.597 95.226,119.916 102.75,119.916 C110.269,119.916 115.983,114.598 115.983,106.734 C115.983,98.879 110.269,93.556 102.75,93.556" id="Shape" fill="#FFFFFF"></path>
            <path d="M111.018,128.868 C108.921,128.868 107.172,130.569 107.172,132.718 C107.172,134.923 108.921,136.676 111.018,136.676 C113.167,136.676 114.976,134.923 114.976,132.718 C114.976,130.569 113.167,128.868 111.018,128.868" id="Path" fill="#FFFFFF"></path>
            <path d="M94.71,136.676 C96.858,136.676 98.672,134.923 98.672,132.718 C98.672,130.565 96.859,128.868 94.71,128.868 C92.617,128.868 90.864,130.564 90.864,132.718 C90.864,134.923 92.617,136.676 94.71,136.676" id="Path" fill="#FFFFFF"></path>
        </g>
    </g>
</svg>